<?xml version="1.0" standalone="no"?>
<!DOCTYPE svg PUBLIC "-//W3C//DTD SVG 1.1//EN" "http://www.w3.org/Graphics/SVG/1.1/DTD/svg11.dtd" >
<svg xmlns="http://www.w3.org/2000/svg">
<metadata>
Created by FontForge 20120731 at Sat Jun 17 11:10:43 2017
 By admin
</metadata>
<defs>
<font id="iconfont" horiz-adv-x="1024" >
  <font-face 
    font-family="iconfont"
    font-weight="500"
    font-stretch="normal"
    units-per-em="1024"
    panose-1="2 0 6 3 0 0 0 0 0 0"
    ascent="896"
    descent="-128"
    x-height="792"
    bbox="-1 -224 1087 896.923"
    underline-thickness="0"
    underline-position="0"
    unicode-range="U+0078-E98A"
  />
<missing-glyph 
 />
    <glyph glyph-name=".notdef" 
 />
    <glyph glyph-name=".notdef" 
 />
    <glyph glyph-name=".null" horiz-adv-x="0" 
 />
    <glyph glyph-name="nonmarkingreturn" horiz-adv-x="341" 
 />
    <glyph glyph-name="x" unicode="x" horiz-adv-x="1001" 
d="M281 543q-27 -1 -53 -1h-83q-18 0 -36.5 -6t-32.5 -18.5t-23 -32t-9 -45.5v-76h912v41q0 16 -0.5 30t-0.5 18q0 13 -5 29t-17 29.5t-31.5 22.5t-49.5 9h-133v-97h-438v97zM955 310v-52q0 -23 0.5 -52t0.5 -58t-10.5 -47.5t-26 -30t-33 -16t-31.5 -4.5q-14 -1 -29.5 -0.5
t-29.5 0.5h-32l-45 128h-439l-44 -128h-29h-34q-20 0 -45 1q-25 0 -41 9.5t-25.5 23t-13.5 29.5t-4 30v167h911zM163 247q-12 0 -21 -8.5t-9 -21.5t9 -21.5t21 -8.5q13 0 22 8.5t9 21.5t-9 21.5t-22 8.5zM316 123q-8 -26 -14 -48q-5 -19 -10.5 -37t-7.5 -25t-3 -15t1 -14.5
t9.5 -10.5t21.5 -4h37h67h81h80h64h36q23 0 34 12t2 38q-5 13 -9.5 30.5t-9.5 34.5q-5 19 -11 39h-368zM336 498v228q0 11 2.5 23t10 21.5t20.5 15.5t34 6h188q31 0 51.5 -14.5t20.5 -52.5v-227h-327z" />
    <glyph glyph-name="gengduo" unicode="&#xe602;" 
d="M122 420q-49 0 -84 -34.5t-35 -83.5t35 -84t84 -35t83.5 35t34.5 84t-34.5 83.5t-83.5 34.5zM500 420q-49 0 -84 -34.5t-35 -83.5t35 -84t84 -35t84 35t35 84t-35 83.5t-84 34.5zM902 420q-49 0 -84 -34.5t-35 -83.5t35 -84t84 -35t83.5 35t34.5 84t-34.5 83.5
t-83.5 34.5z" />
    <glyph glyph-name="xiajiantou" unicode="&#xe61c;" 
d="M69 524v0l-70 -69l512 -508l511 508l-69 69h-1v0l-441 -439z" />
    <glyph glyph-name="shoppingcart" unicode="&#xe689;" 
d="M974 577l-700 33l-15 105l-174 41l-12 -49l140 -34l87 -602h647v51h-602l-8 52h611zM900 225h-570l-48 333l638 -30zM451 36q-10 7 -22 11q-13 4 -26 4q-17 0 -33 -7q-24 -10 -38 -31q-7 -10 -11 -22q-4 -13 -4 -26q0 -17 7 -33q10 -23 31 -38q11 -7 23 -11q12 -3 25 -3
q17 0 33 6q24 10 38 31q7 11 11 23t4 25q0 18 -7 34q-10 23 -31 37zM444 -52q-5 -12 -16 -20q-5 -3 -12 -5q-6 -2 -13 -2q-9 0 -17 3q-13 5 -20 16q-4 6 -6 12t-2 13q0 9 4 18q5 12 16 19q6 4 12 6t13 2q9 0 17 -3q13 -6 20 -17q4 -5 6 -11q2 -7 2 -14q0 -9 -4 -17zM925 -1
q-10 23 -31 37q-10 7 -22 11q-13 4 -26 4q-17 0 -33 -7q-24 -10 -38 -31q-7 -10 -11 -22q-3 -13 -3 -26q0 -17 6 -33q10 -23 31 -38q11 -7 23 -11q12 -3 25 -3q18 0 34 6q23 10 37 31q7 11 11 23t4 25q0 18 -7 34zM887 -52q-5 -12 -16 -20q-5 -3 -11 -5q-7 -2 -14 -2
q-9 0 -17 3q-12 5 -20 16q-4 6 -5 12q-3 6 -3 13q1 9 4 18q5 12 16 19q6 4 12 6t13 2q9 0 18 -3q12 -6 19 -17q4 -5 6 -11q2 -7 2 -14q0 -9 -4 -17zM407 222h16v71h113v-71h16v71h113v-71h16v71h113v-71h16v71h95l1 16h-96v72h101l1 16h-102v73h106l1 15h-107v57l-16 1v-58
h-113v63l-16 1v-64h-113v69l-16 1v-70h-113v75h-16v-75h-125v-15h125v-73h-103l2 -16h101v-72h-91l3 -16h88v-71zM681 470h113v-73h-113v73zM681 381h113v-72h-113v72zM552 470h113v-73h-113v73zM552 381h113v-72h-113v72zM423 470h113v-73h-113v73zM423 381h113v-72h-113
v72z" />
    <glyph glyph-name="fenxiang1" unicode="&#xe618;" 
d="M706 91q-25 0 -47 -12l-206 153q4 16 4 31q0 25 -9 48l219 214q18 -8 39 -8q42 0 71 29.5t29 71t-29 71t-71 29.5t-71 -29.5t-29 -70.5q0 -14 3 -27l-222 -218q-24 10 -50 10q-49 0 -84.5 -35t-35.5 -84.5t35.5 -84.5t84.5 -35q35 0 64 18l206 -153q-1 -9 -1 -19
q0 -41 29 -70.5t71 -29.5t71 29.5t29 71t-29 71t-71 29.5v0z" />
    <glyph glyph-name="qq" unicode="&#xe608;" 
d="M332 306l-1 3l-1 4v2v9v3l1 4l2 4l1 4l3 5l3 4v3v3v4l2 4l1 5l1 2l1 3l2 2l1 2v11l1 5l1 7l2 8l2 8l2 4l1 5l2 5l2 5l3 5l2 5l3 5l4 6l2 3l1 2l4 6l4 5l5 6l5 6l5 6l6 5l6 6l5 4l5 4l5 4l6 3l5 3l6 3l7 3l7 2l6 2l7 2l7 2l8 2l7 1l15 2h8h23l8 -1l8 -1l7 -1l8 -1l8 -2
l7 -2l8 -2l7 -3l7 -3l8 -3l7 -3l6 -4l7 -4l5 -4l3 -2l3 -2l5 -4l4 -5l5 -4l4 -5l4 -5l4 -5l3 -5l3 -4l3 -6l2 -5l5 -10l2 -5l2 -5l1 -5l2 -5l1 -4l1 -5l3 -9l1 -7l1 -8l1 -6l1 -9l1 -1l1 -2l3 -5l1 -3l2 -3l2 -4l2 -4l1 -5l2 -4l1 -5v-3v-3v-2v-3v-3l-1 -3l-1 -6l-2 -3
l-1 -4v-1l1 -1l1 -2l7 -10l6 -8l2 -5l4 -6l3 -6l3 -6l4 -8l4 -8l2 -5l2 -5l2 -5l1 -5l2 -5l1 -5l2 -9l1 -9l1 -8v-12l-1 -4v-7l-2 -7l-2 -5v-3l-2 -3l-1 -2l-1 -2l-1 -2l-2 -2l-2 -1l-1 -2h-2l-2 -1l-1 -1h-2l-2 1l-2 1l-1 1l-2 1l-1 1l-1 1l-3 3l-2 4l-3 3l-2 3l-2 4l-3 6
l-3 6v0h-1l-1 -1l-1 -1l-1 -2l-2 -7l-4 -8l-4 -11l-3 -5l-4 -6l-4 -6l-4 -6l-2 -3l-3 -3l-6 -6v0l1 -1l3 -2l13 -6l6 -3l5 -3l5 -4l5 -4l2 -2l2 -2l2 -2l1 -3l1 -2l1 -2v-3l1 -2l-1 -2v-2v-2l-1 -1l-1 -2v-1l-3 -3l-2 -3l-2 -2l-1 -1l-3 -3l-4 -2l-5 -2l-4 -2l-5 -2l-3 -1
l-2 -1l-6 -1l-6 -1l-6 -2l-7 -1h-7l-7 -1h-22l-8 1h-7l-8 1l-8 1l-8 1l-8 2l-8 2l-8 2l-7 3l-8 2l-4 2l-4 1l-2 1h-3h-6l-8 1h-3l-5 1l-3 -3l-5 -3l-6 -2l-6 -4l-4 -2l-4 -1l-9 -4l-5 -1l-5 -2l-7 -1h-4l-5 -1h-5l-6 -1h-23l-13 1l-13 1l-6 1l-13 2l-6 1l-6 2l-5 1l-5 2
l-5 2l-5 2l-4 2l-3 3l-2 2l-1 1l-2 2l-1 2l-1 1l-1 2l-1 3l-1 2v2v2v2v3l1 2v4v2l1 3l1 2l1 4l2 1l1 1l2 3l2 2l2 1l1 1l3 1l2 1l3 2l3 1h3l3 1l4 1h4h4l1 1v0h1v1l-1 1l-2 1l-6 5l-4 3l-4 4l-5 4l-4 6l-6 6l-2 3l-2 4l-2 4l-3 4l-2 5l-2 4l-2 5l-2 6l-2 5l-1 6h-1v0l-1 1v0
l-1 -1h-1v-1v-1l-1 -2l-1 -1l-2 -5l-2 -3l-2 -2l-2 -3l-3 -4l-2 -3l-3 -2l-3 -3l-3 -2l-4 -2l-3 -2l-4 -1h-4h-1h-1l-1 2l-1 1l-1 3l-1 2l-1 3l-1 3l-1 3l-1 7v4v12v10l1 5l1 5l1 5l1 5l2 6l2 6l2 6l2 5l3 6l3 6l3 6l4 6l4 5l4 7l4 4l4 5l5 5l2 2l3 3l4 3l4 4l6 5l5 4z
M511 -159q-91 0 -174 35q-80 34 -142 96t-96 142q-35 84 -35 175t35 174q34 80 96 142t142 96q83 35 174 35t175 -35q80 -34 142 -96t96 -142q35 -83 35 -174t-35 -175q-34 -80 -96 -142t-142 -96q-84 -35 -175 -35zM511.5 710q-114.5 0 -211.5 -56.5t-153.5 -153.5
t-56.5 -211.5t56.5 -211.5t153.5 -153.5t211.5 -56.5t211.5 56.5t153.5 153.5t56.5 211.5t-56.5 211.5t-153.5 153.5t-211.5 56.5z" />
    <glyph glyph-name="icon22" unicode="&#xe66b;" 
d="M987 129l-443 454q-14 14 -34 13q-21 1 -35 -13l-442 -454q-14 -13 -14 -32t13.5 -32.5t32.5 -13.5t32 14l413 420l412 -420q13 -14 32 -14t32.5 13.5t13.5 32.5t-13 32z" />
    <glyph glyph-name="shangjiantou" unicode="&#xe623;" 
d="M448 364h-128l192 192l192 -192h-128v-320h-128v320z" />
    <glyph glyph-name="kongdiao" unicode="&#xe661;" 
d="M906 602q30 0 42.5 -16.5t12.5 -46.5v-191h-898v193q0 29 14 45t42 16h787zM63 312h898v-96q0 -17 -8 -31t-20.5 -24.5t-29 -16t-34.5 -5.5h-714q-5 0 -10 0.5t-10 1.5q2 -10 8 -26t22 -32q11 -13 25.5 -23t27.5 -17.5t23 -12t14 -5.5q19 -5 16 -17q-3 -14 -24 -7
q-5 1 -17.5 5.5t-28 13t-32.5 20t-31 25.5q-11 12 -17.5 24.5t-10.5 24.5t-6 22t-2 17q-18 10 -28.5 26t-10.5 37v96zM126 189h771v47h-771v-47z" />
    <glyph glyph-name="13" unicode="&#xe622;" 
d="M512 427q-69 0 -118.5 -49t-49.5 -118.5t49.5 -118.5t118.5 -49t118.5 49t49.5 118.5t-49.5 118.5t-118.5 49zM512 122q-57 0 -97.5 40t-40.5 97t40.5 97.5t97.5 40.5t97.5 -40.5t40.5 -97.5t-40.5 -97t-97.5 -40zM705 511l-27 130h-332l-27 -130h-49v30v30h-29h-90h-30
v-60h-56v-552h894v552h-254zM151 541h90v-30h-90v30zM929 -11h-834v492h248l27 130h284l27 -130h248v-492z" />
    <glyph glyph-name="iconzfb" unicode="&#xe620;" 
d="M424 248q-10 6 -55 23q-19 7 -34.5 8t-34.5 -1q-23 -1 -50 -25t-27 -51q0 -83 100 -83q33 1 75 23q49 28 84 65q1 2 3 4l3 3v0q-59 32 -64 34v0v0zM905 575v2q-2 7 -20 8q-13 1 -46 3h-2h-2q-12 1 -26 2q-19 2 -36 5q-34 5 -61 23q-10 7 -18 13q-7 4 -15 11q-6 6 -12 11
l-5 5l-4 4q-18 17 -32 29q-18 16 -36 29l-6 4l-1 0.5t-1 1.5q-20 12 -42 17q-1 1 -1.5 1h-0.5h-4q-11 1 -21 0h-2h-3h-21h-4v0l-1 -1q-22 -5 -42 -17q0 -1 -1 -1.5t-2 -0.5q-3 -2 -5 -4q-19 -13 -36 -29q-17 -15 -32 -29l-4 -4l-5 -5q-5 -4 -11 -9q-8 -7 -16.5 -13.5
t-17.5 -12.5q-28 -18 -61 -23q-18 -3 -36 -5q-15 -1 -27 -2h-1.5h-1.5q-34 -2 -46 -3q-18 -1 -20 -8v-2v-21q0 -71 2 -129v0v-1q1 -12 1 -13v0q3 -51 4 -58v0v-8v-2q1 -3 1 -6v-1v-1q0 -3 1 -6v-0.5v-1.5v-3t1 -3v-1v-2.5v-3.5q1 -1 1 -2v-6l0.5 -0.5l0.5 -0.5v-7v0
q4 -29 10 -53q2 -10 5 -21v-1q1 -5 2 -9l0.5 -0.5l0.5 -0.5q1 -6 2 -9v-0.5v-0.5q3 -8 6 -17v-1v0q1 -2 3 -9l0.5 -0.5l0.5 -0.5q0 -1 1 -4t2 -4v-0.5v-0.5q0 -1 1.5 -3.5t1.5 -4.5q1 -2 4 -9v0q15 -34 36 -64q12 -16 25 -31v0v0q14 -17 32 -36q9 -8 20 -19l1 -1l3 -3l3 -3
l0.5 -0.5l0.5 -0.5q2 -1 7 -6v0v0q1 -1 3.5 -3t3.5 -3.5t2 -1.5l3 -3t4 -3v-0.5v-0.5q4 -3 7 -6h1q0 -1 1 -1q2 -1 7 -6l1 -1h1q2 -3 7 -7v0q57 -47 108 -71q7 -4 21 -10l16 -7q4 -1 6 -1l14 -2h3v0h1h1.5h1h1h1.5h1.5h1h1.5v0h3l14 2q2 1 5 1q8 3 17 7q14 6 21 10
q50 24 107 71h1l7 7l2 1q1 1 3.5 3t3.5 3l1 1q4 4 7 6l0.5 0.5l0.5 0.5l3 2.5t4 3.5l0.5 0.5l0.5 0.5l7 7h0.5h0.5q2 3 7 6v1q2 1 4 3.5t3 2.5q0 1 0.5 1h0.5l19 19q19 19 33 36v0v0q13 16 24 31q22 30 37 64v0q3 7 3 9l4 8v1q1 2 3 8v0.5t1 0.5q2 7 2 9h0.5t0.5 1q3 9 5 17
v0.5t1 0.5q0 3 2 9v0.5v0.5q1 1 1.5 4t1.5 5v1q2 9 5 21q5 24 9 53v0q0 1 0.5 3.5t0.5 3.5v0.5v0.5l1 6v2q1 3 1 6v0.5v0.5q0 1 0.5 3t0.5 3v1.5v0.5v6q1 0 1 1v1v4v2v2q1 7 1 8v0q0 7 4 58v0q1 12 1 13v1v0q2 58 2 129v21v0v0zM840 180q-4 -4 -29.5 -19.5t-60.5 -43.5
q-17 -14 -39 -8q-9 2 -20 6v0q-77 28 -145 66q-11 -10 -17 -16q-85 -77 -198 -85h-12q-5 1 -12.5 1.5t-11.5 0.5q-44 6 -75 30q-44 33 -43 91q-1 53 41 85q39 30 98 30q63 1 172 -51q5 -3 33 -14q44 58 61 131l-238 -1v29l112 1v67h-158v28h158v54q0 15 37 15l42 -1v-68h163
v-28h-163v-67h129q-9 -98 -76 -185q9 -3 42.5 -15t59 -20.5t31.5 -9.5q9 -1 30.5 0t38 2.5t33.5 3.5t19 2q8 1 0 -9l-2 -2v0v0z" />
    <glyph glyph-name="xinlang" unicode="&#xe609;" 
d="M711 392q-14 2 -18.5 8t-0.5 11l3 4q1 3 3 6.5t5 14.5t4 22t-3.5 24.5t-15.5 23.5q-13 14 -34.5 18t-42.5 0.5t-40.5 -8.5t-31.5 -10l-12 -6q-10 -3 -16 -4t-9.5 0.5t-5.5 3t-1.5 7t1 9t2.5 11.5t3 13q0 15 -2.5 27t-10.5 25.5t-21 20.5t-38 6.5t-58 -11.5t-67 -34
t-59.5 -47.5t-46.5 -47t-32 -37.5l-11 -15q-20 -26 -33 -53t-18.5 -45t-7.5 -35.5t-2 -23v-8.5v0q5 -46 27.5 -82t53.5 -59t73 -38.5t80.5 -23t81.5 -10.5q71 -6 146.5 11t141 58t92.5 99q16 34 16 63.5t-10 48t-27 33t-31.5 21t-26.5 9.5zM421 94q-103 -5 -175 40t-72 114
q0 68 71.5 117.5t175.5 54.5q104 4 175.5 -35.5t71.5 -106.5q0 -70 -73 -125t-174 -59zM393 359q-38 -4 -64.5 -21t-37 -37.5t-16 -40.5t-4.5 -33l1 -13v-5t2 -11t5.5 -15.5t11 -16.5t18.5 -14q62 -31 116.5 -19t88.5 56q16 20 17.5 51.5t-10.5 60t-45.5 46.5t-82.5 12z
M359 177.5q-19 -2.5 -32.5 7.5t-13.5 26q0 17 12.5 31t30.5 16q22 2 35.5 -9t13.5 -27t-13.5 -29t-32.5 -15.5zM439.5 247q-6.5 -5 -13.5 -4.5t-10 6.5q-4 6 -2.5 14t8.5 12q7 6 14 5t10.5 -7t1.5 -13.5t-8.5 -12.5zM778 448q8 0 14.5 5.5t7.5 13.5v2q4 31 -1 54.5
t-15.5 36.5t-24.5 22t-28.5 11.5t-26.5 3t-19 -0.5l-8 -1q-9 0 -16 -7t-7 -16t7 -16t16 -7q30 6 47 0.5t24 -18.5t8.5 -26.5t0.5 -23.5l-2 -11q0 -9 7 -15.5t16 -6.5zM762 713q-48 11 -113 -2l-1 -0.5t-2 -0.5l-1 -1q-10 -2 -16.5 -11t-6.5 -20q0 -14 9.5 -23.5t22.5 -9.5
q18 2 30 7q5 0 16.5 1.5t31 -3.5t39 -12.5t40.5 -25t35 -41.5q25 -57 10 -109q-6 -17 -6 -32q0 -14 9 -22t23 -8t21.5 5t10.5 23v0q17 53 13 96.5t-18.5 75.5t-40.5 55.5t-52 37t-54 20.5z" />
    <glyph glyph-name="baidu" unicode="&#xe7df;" 
d="M184 272q27 6 46 20t28.5 33.5t15 37.5t6 40.5t0 32.5t-2.5 23q-5 39 -43 80t-87 37q-25 -3 -45 -18.5t-30 -33.5t-17.5 -41t-8.5 -31.5t-2 -14.5v0q-2 -18 -0.5 -42t13 -48.5t27 -43.5t42.5 -28t58 -3zM303 41q-12 -32 -5 -54q4 -13 11 -23t13.5 -14.5t14 -7.5
t10.5 -3.5t4 -0.5v0h59v143h-63q-18 -6 -29.5 -18t-14.5 -22zM391 496q46 0 78.5 46t32.5 111.5t-32.5 112t-78.5 46.5t-78.5 -46.5t-32.5 -112t32.5 -111.5t78.5 -46zM656 485q38 -5 71 18t51 56.5t23 69.5q8 49 -24 97.5t-76 58.5q-42 10 -87.5 -40.5t-50.5 -99.5
q-4 -41 2 -73t29 -57t62 -30zM857 94q-14 11 -37 30.5t-77 73.5t-87 101q-36 56 -81 79.5t-85 16.5t-73.5 -29t-52.5 -54q-21 -35 -51 -67t-54.5 -53t-26.5 -23t-15 -12t-28 -22.5t-33.5 -33.5t-30 -44t-18 -54t2.5 -65q9 -40 27.5 -68.5t36 -41.5t39 -20t28.5 -7.5t12 -0.5
q83 -9 178 13q49 9 88 8t64 -8l25 -6q5 -1 13 -3.5t32.5 -7.5t47.5 -7t53 0t55 10.5t47.5 28t35.5 48.5q17 41 19 78.5t-5 60.5t-20 44t-19 26.5t-10 8.5v0zM476 -119h-144q-29 5 -51 20t-29.5 25t-10.5 17q-20 48 -11 100q7 25 21 43.5t26.5 27.5t27.5 15t20.5 7t8.5 1v0
h77v95l65 -2v-349zM746 -118h-167q-18 4 -31.5 12.5t-20 16.5t-10.5 16.5t-4.5 12t-0.5 4.5v184l67 2v-166q2 -8 8.5 -13t12.5 -6l5 -2h69v186h72v-247zM982 373q0 15 -6.5 34.5t-19 41.5t-39 37t-60.5 15q-111 0 -111 -154q0 -24 1.5 -39.5t8.5 -37.5t19.5 -35.5
t37.5 -22.5t60 -9q20 1 36 5.5t27 14t19.5 19t13 24t8 24.5t4.5 26t1 23v20.5v13.5z" />
    <glyph glyph-name="weixin" unicode="&#xe676;" 
d="M513 -156q-91 0 -174 35.5t-143 95.5t-95.5 143t-35.5 173.5t35.5 173.5t95.5 143t143 95.5t174 35.5t174 -35.5t143 -95.5t95.5 -143t35.5 -173.5t-35.5 -173.5t-95.5 -143t-143 -95.5t-174 -35.5zM513 722q-117 0 -216.5 -57.5t-157 -157t-57.5 -216t57.5 -216
t157 -157t216.5 -57.5t216 57.5t156.5 157t57.5 216t-57.5 216t-156.5 157t-216 57.5zM615 357q10 0 21 -1q-14 65 -76 108.5t-142 43.5q-89 0 -152.5 -53.5t-63.5 -130.5q0 -85 86 -146l-21 -65l75 38q55 -11 76 -11q10 0 20 1q-6 23 -6 45q0 71 53 121t130 50zM499 416
q12 0 19.5 -7.5t7.5 -19.5t-7.5 -19.5t-19.5 -7.5q-13 0 -22.5 7.5t-9.5 19.5t9.5 19.5t22.5 7.5zM348 362q-13 0 -23 7.5t-10 19.5t10 19.5t23 7.5q12 0 19.5 -7.5t7.5 -19.5t-7.5 -19.5t-19.5 -7.5zM812 189q0 64 -55 110.5t-128 46.5q-77 0 -130.5 -46t-53.5 -111
t53.5 -111t130.5 -46q22 0 65 11l59 -33l-16 54q75 57 75 125zM569 216q-8 0 -14.5 6.5t-6.5 15t6.5 15t14.5 6.5q12 0 19.5 -6.5t7.5 -15t-7.5 -15t-19.5 -6.5zM688 216q-8 0 -14.5 6.5t-6.5 15t6.5 15t14.5 6.5q12 0 19.5 -6.5t7.5 -15t-7.5 -15t-19.5 -6.5z" />
    <glyph glyph-name="fenxiang" unicode="&#xe632;" horiz-adv-x="1088" 
d="M85 -212q-35 0 -60 24.5t-25 58.5v662q0 35 25 59t60 24h212v-63h-212q-9 0 -15 -6t-6 -14v-662q0 -8 6 -13.5t15 -5.5h860q9 0 15.5 5.5t6.5 13.5v238h64v-238q0 -34 -25 -58.5t-61 -24.5h-860v0zM448 18q-2 6 -3.5 21.5t0 56t9 82t29.5 97t56 104.5q128 184 413 249
l-231 124l33 60l333 -181l-195 -309l-57 36l128 203q-256 -60 -368 -220q-65 -92 -79 -213q-7 -61 -1 -107l2 -10l-68 -1l-1 8v0zM457 19q-1 8 -2.5 24t0 55.5t9 80t29 94t53.5 100.5q141 201 471 258l8 -48q-310 -53 -438 -237q-30 -42 -49 -92t-26 -86.5t-8 -76t0 -50.5
t2 -21l-49 -1v0v0zM889 335l-41 26l157 249l-271 146l23 43l317 -171l-185 -293v0zM889 335z" />
    <glyph glyph-name="mima1" unicode="&#xe63d;" 
d="M857 366l-568 1q0 8 -0.5 40.5t-0.5 49t2.5 47t7 50t13.5 42t23 38.5q19 22 31 33.5t33.5 27t49.5 22t64 6.5q70 2 131.5 -49.5t91.5 -128.5q9 -23 18.5 -33.5t25.5 -11.5q21 0 33.5 9.5t15.5 24.5t1.5 29.5t-5.5 25.5q-87 223 -312 223q-79 0 -128 -19.5t-95 -69.5
q-22 -25 -39 -56.5t-25.5 -63t-14.5 -65.5t-7.5 -64t-2.5 -58.5t0 -48.5l-33 -1q-23 0 -39.5 -16.5t-16.5 -38.5v-468q0 -23 16.5 -39t39.5 -16h690q23 0 39.5 16t16.5 39v468q0 22 -16.5 38.5t-39.5 16.5v0v0zM825 -78q0 -19 -13 -32t-32 -13h-535q-18 0 -31 13
q-13 14 -13 32v312q0 19 13 32t31 13h535q19 0 32 -13t13 -32v-312v0zM825 -78z" />
    <glyph glyph-name="erweima" unicode="&#xe60f;" 
d="M544 -84h64v-64h-64v64v0zM416 396v352h-352v-352h64v-64h64v64h224v0zM128 460v224h224v-224h-224v0zM192 620h96v-96h-96v96v0zM608 748v-352h352v352h-352v0zM896 460h-224v224h224v-224v0zM736 620h96v-96h-96v96v0zM192 76h96v-96h-96v96v0zM64 332h64v-64h-64v64v0
zM192 332h64v-64h-64v64v0zM256 204h-192v-352h352v352h-96v64h-64v-64v0zM352 140v-224h-224v224h224v0zM480 716h64v-96h-64v96v0zM480 556h64v-64h-64v64v0zM672 332h-64h-64v96h-64v-96h-97v-64h97h64h64v-64h64v64v64zM672 204h64v-64h-64v64v0zM480 204h64v-96h-64v96
v0zM480 44h64v-128h-64v128v0zM608 108h64v-192h-64v192v0zM800 204h160v-64h-160v64v0zM896 332h64v-64h-64v64v0zM736 332h96v-64h-96v64v0zM736 108h64v-64h-64v64v0zM896 44h-65v-64h97v64h32v64h-64v-64zM736 -20h64v-64h-64v64v0zM800 -84h160v-64h-160v64v0zM800 -84
z" />
    <glyph glyph-name="iconfontshezhi" unicode="&#xe612;" 
d="M511.5 480q-74.5 0 -127 -52.5t-52.5 -126.5t52.5 -126.5t127 -52.5t127 52.5t52.5 126.5t-52.5 126.5t-127 52.5zM511.5 166q-55.5 0 -95 39.5t-39.5 95t39.5 95t95 39.5t95 -39.5t39.5 -95t-39.5 -95t-95 -39.5zM960 211v179l-130 22q-6 19 -15 35l77 107l-127 127
l-107 -77q-16 9 -35 15l-22 130h-179l-22 -130q-14 -4 -35 -15l-107 76l-126 -126l76 -107q-9 -17 -15 -35l-130 -22v-179l130 -21q7 -21 16 -37l-77 -106l127 -127l107 76q20 -9 34 -13l22 -130h179l22 130q20 6 36 15l107 -77l127 127l-77 107q10 20 14 35zM787 202
q-4 -11 -11 -27q-12 -24 4 -46l54 -77l-73 -73l-76 55q-11 9 -26 9q-11 0 -21 -6q-13 -7 -29 -12q-26 -8 -30 -35l-16 -93h-103l-15 93q-5 28 -32 36q-11 3 -28 11q-9 4 -19 4q-14 0 -26 -8l-76 -55l-73 73l54 76q16 23 3 47q-7 12 -12 29q-8 26 -35 31l-93 15v103l93 16
q27 4 35 31q5 14 11 28q13 24 -3 46l-54 76l73 72l76 -53q11 -9 26 -9q10 0 20 5q17 9 28 12q27 8 32 36l15 92h103l16 -92q4 -28 31 -36q14 -4 26 -11q10 -6 22 -6q15 0 26 9l77 55l73 -73l-55 -76q-17 -24 -3 -49q7 -11 11 -26q8 -27 36 -31l92 -16v-103l-92 -15
q-28 -5 -36 -32z" />
    <glyph glyph-name="ticket2" unicode="&#xe626;" 
d="M901 652l-31 29q-6 2 -16 4t-35.5 -2.5t-42.5 -22.5l-153 -155l-429 62l-54 -49l319 -185l-117 -114l-195 -13l-38 -14l200 -111l107 -201l15 38l12 187q329 335 458 466q14 17 14 35t-7 32l-7 14v0zM575 216l159 -298l42 48l-43 394zM575 216z" />
    <glyph glyph-name="weixin1" unicode="&#xe64f;" 
d="M683 476q16 0 31 -2q-18 110 -114.5 184.5t-225.5 74.5q-93 0 -171.5 -40.5t-124.5 -109.5t-46 -150q0 -68 33 -128t90 -102q-8 -41 -14.5 -76t-5.5 -34q10 4 111 62q62 -22 128 -22h15q-8 32 -8 64q0 116 88.5 197.5t213.5 81.5zM509 574q18 0 30.5 -12.5t12.5 -30.5
t-12.5 -30.5t-30.5 -12.5t-30.5 12.5t-12.5 30.5t12.5 30.5t30.5 12.5zM246 488q-18 0 -30.5 12.5t-12.5 30.5t12.5 30.5t30.5 12.5t30.5 -12.5t12.5 -30.5t-12.5 -30.5t-30.5 -12.5zM992 207q0 104 -86 177t-207.5 73t-207.5 -73.5t-86 -177t86 -177t208 -73.5q64 0 123 23
q78 -41 83 -43q1 -1 -3.5 23t-12.5 57q48 35 75.5 84.5t27.5 106.5zM588.5 262q-17.5 0 -30 12.5t-12.5 30t12.5 30t30 12.5t30 -12.5t12.5 -30t-12.5 -30t-30 -12.5zM802.5 262q-17.5 0 -30 12.5t-12.5 30t12.5 30t30 12.5t30 -12.5t12.5 -30t-12.5 -30t-30 -12.5z" />
    <glyph glyph-name="shixinjiantouzuo" unicode="&#xe648;" 
d="M352 300l320 -256v512z" />
    <glyph glyph-name="dianhua" unicode="&#xe607;" 
d="M613 781q-4 1 -8 1q-17 1 -30.5 -9.5t-16.5 -27.5q-4 -19 6.5 -35t29.5 -20q73 -15 134 -56t102 -104q85 -129 53 -279q-3 -19 7.5 -35t28.5 -20q4 -1 8 -1q15 -1 27 8q16 10 20 29q25 123 -14 240.5t-131.5 200.5t-215.5 108v0v0zM692 87q66 -43 111 -89q47 -49 46 -84
q-1 -36 -41 -74q-6 -6 -16.5 -13.5t-32 -20.5t-52.5 -21.5t-65 -8.5q-40 0 -82 13q-43 13 -87 40q-85 50 -154 118t-131 163q-50 76 -83.5 153.5t-45.5 138.5t-15.5 93.5t-3.5 56.5q0 45 15 85.5t34 65t43.5 44.5t37 27t22.5 11q31 15 57 15q12 0 23 -3q33 -10 50 -47
q30 -65 49 -161q3 -14 3 -25.5t-2 -19.5t-7.5 -16t-9.5 -12.5t-12.5 -10t-13.5 -8.5t-15 -8h-2q-61 -26 -72 -30q-8 -3 -11.5 -11t-0.5 -16q38 -115 109 -225q70 -108 158 -189q6 -6 15 -6h2q9 1 15 8q20 26 39 44q42 40 79 40q10 0 19.5 -3t27.5 -14v0v0zM498 402
q-19 4 -29.5 20t-6.5 35q4 16 17 26.5t30 9.5h8q80 -17 125.5 -86t28.5 -149q-4 -19 -20 -29q-12 -9 -27 -8q-4 0 -7 1q-19 4 -29.5 20t-6.5 34q9 44 -15.5 80.5t-67.5 45.5v0v0zM546 547q-19 4 -29.5 20t-6.5 34q4 17 17 27.5t30 9.5q4 0 8 -1q65 -13 119.5 -50t90.5 -93
q76 -115 48 -249q-4 -19 -20 -30q-12 -8 -27 -7q-4 0 -7 1q-19 4 -29.5 20t-6.5 34q20 98 -35 181t-152 103v0zM546 547z" />
    <glyph glyph-name="jinlingyingcaiicon01" unicode="&#xe7b6;" 
d="M329 206v0l355 -363l101 103l-355 363l338 346l-98 99l-338 -345v0l-101 -103v0v0z" />
    <glyph glyph-name="fenlei" unicode="&#xe696;" 
d="M370 812h-255q-47 0 -81 -33.5t-34 -81.5v-255q0 -48 34 -81.5t81 -33.5h255q48 0 82 33.5t34 81.5v255q0 48 -34 81.5t-82 33.5zM909 812h-255q-48 0 -81.5 -33.5t-33.5 -81.5v-255q0 -48 33.5 -81.5t81.5 -33.5h255q47 0 81 33.5t34 81.5v255q0 48 -34 81.5t-81 33.5z
M964 442q0 -23 -16 -39t-39 -16h-255q-23 0 -39 16t-16 39v255q0 23 16 39t39 16h255q23 0 39 -16t16 -39v-255zM370 274h-255q-47 0 -81 -34t-34 -81v-256q0 -47 34 -81t81 -34h255q48 0 82 34t34 81v256q0 47 -34 81t-82 34zM425 -97q0 -23 -16 -39t-39 -16h-255
q-23 0 -39 16t-16 39v256q0 23 16 38.5t39 15.5h255q24 0 39.5 -15.5t15.5 -38.5v-256v0zM909 274h-255q-48 0 -81.5 -34t-33.5 -81v-256q0 -47 33.5 -81t81.5 -34h255q47 0 81 34t34 81v256q0 47 -34 81t-81 34zM964 -97q0 -23 -16 -39t-39 -16h-255q-23 0 -39 16t-16 39
v256q0 23 16 38.5t39 15.5h255q23 0 39 -15.5t16 -38.5v-256z" />
    <glyph glyph-name="shouji" unicode="&#xe60b;" 
d="M394.5 16q-19.5 0 -33.5 -14t-14 -34t14 -34t33.5 -14t33.5 14t14 34t-14 34t-33.5 14zM631 770h-474q-29 0 -50.5 -21t-21.5 -51v-796q0 -30 21.5 -51t50.5 -21h474q30 0 51.5 21t21.5 51v796q0 30 -21.5 51t-51.5 21zM157 722h474q10 0 17 -7t7 -17v-596h-522v596
q0 10 7 17t17 7zM631 -122h-474q-10 0 -17 7t-7 17v148h522v-148q0 -10 -7 -17t-17 -7z" />
    <glyph glyph-name="shoucang" unicode="&#xe642;" 
d="M512 -147q-10 6 -26 17t-62.5 48.5t-89 76.5t-94 97.5t-88.5 116t-62.5 128t-25.5 136.5q0 129 61 202t163 73q52 0 94 -10t65 -24.5t38.5 -29t21.5 -24.5l5 -10q1 4 5 10.5t20.5 23.5t39 30t65 23.5t93.5 10.5q102 0 163 -73t61 -202q0 -66 -24.5 -136.5t-64 -129.5
t-87.5 -115t-95.5 -98.5t-87 -75t-64 -49l-24.5 -16.5v0z" />
    <glyph glyph-name="mima" unicode="&#xe692;" 
d="M500 207h24q14 0 24.5 -10.5t10.5 -24.5v-163q0 -14 -10.5 -24.5t-24.5 -10.5h-24q-14 0 -24.5 10.5t-10.5 24.5v163q0 14 10.5 24.5t24.5 10.5zM884 323v-419q0 -19 -13.5 -32.5t-32.5 -13.5h-652q-19 0 -32.5 13.5t-13.5 32.5v419h744zM954 393h-884v-489q0 -48 34 -82
t82 -34h652q48 0 82 34t34 82v489v0zM861 393h-70v70q0 116 -83 197.5t-196 81.5q-114 0 -196.5 -82.5t-82.5 -196.5v-70h-70v70q0 93 47 174t127.5 128t174.5 47q93 0 173 -45.5t128 -126.5t48 -177v-70z" />
    <glyph glyph-name="kuaican" unicode="&#xe66c;" 
d="M660 749v53h-194q-18 0 -33 -17t-24.5 -44t-14 -46.5t-7.5 -39.5h-308l38 -595h355l38 595h-70q1 24 7.5 47.5t12.5 35.5l6 11h194zM339 492h-210l-5 127h255zM461 492h-70l37 127h38zM830 429h-229q-38 0 -64.5 -26.5t-26.5 -63.5v-7h410v7q0 37 -26 63.5t-64 26.5z
M510 140q0 -37 26.5 -63.5t64.5 -26.5h229q38 0 64 26.5t26 63.5v31h-410v-31zM867 306q-24 0 -40 -17q-15 17 -39 17q-21 0 -36 -14q-16 14 -37 14q-24 0 -39 -17q-16 17 -40 17t-40 -18q-16 18 -40 18q-22 0 -37.5 -15.5t-15.5 -38t15.5 -38t37.5 -15.5q24 0 40 18
q16 -18 40 -18t40 18q15 -18 39 -18q21 0 37 14q15 -14 36 -14q24 0 39 17q16 -17 40 -17q22 0 37.5 15.5t15.5 38t-15.5 38t-37.5 15.5zM64 25q8 -26 29.5 -42.5t48.5 -16.5h740q27 0 48.5 16.5t29.5 42.5h-896z" />
    <glyph glyph-name="dianying" unicode="&#xe679;" 
d="M512 -212q-104 0 -199 40.5t-163.5 109t-109 163.5t-40.5 199t40.5 199t109 163.5t163.5 109t199 40.5t199 -40.5t163.5 -109t109 -163.5t40.5 -199t-40.5 -199t-109 -163.5t-163.5 -109t-199 -40.5zM512 734q-88 0 -168.5 -34.5t-138.5 -92.5t-92.5 -138.5t-34.5 -168.5
t34.5 -168.5t92.5 -138.5t138.5 -92.5t168.5 -34.5t168.5 34.5t138.5 92.5t92.5 138.5t34.5 168.5t-34.5 168.5t-92.5 138.5t-138.5 92.5t-168.5 34.5zM512 670q-39 0 -66.5 -27.5t-27.5 -66.5t27.5 -66.5t66.5 -27.5t66.5 27.5t27.5 66.5t-27.5 66.5t-66.5 27.5zM512 118
q-39 0 -66.5 -27.5t-27.5 -66.5t27.5 -66.5t66.5 -27.5t66.5 27.5t27.5 66.5t-27.5 66.5t-66.5 27.5zM835 481q-19 34 -56.5 44.5t-71.5 -8.5t-44.5 -56.5t8.5 -71.5t56.5 -44.5t71.5 8.5t44.5 56.5t-8.5 71.5zM353 211q-19 34 -56.5 44.5t-71.5 -8.5t-44.5 -56.5t8.5 -71.5
t56.5 -44.5t71.5 8.5t44.5 56.5t-8.5 71.5zM225 353q34 -19 71.5 -8.5t56.5 44.5t8.5 71.5t-44.5 56.5t-71.5 8.5t-56.5 -44.5t-8.5 -71.5t44.5 -56.5zM707 83q34 -19 71.5 -8.5t56.5 44.5t8.5 71.5t-44.5 56.5t-71.5 8.5t-56.5 -44.5t-8.5 -71.5t44.5 -56.5zM473.5 231.5
q28.5 -15.5 60 -7t47 37t7 60t-37 47t-60 7t-47 -37t-7 -60t37 -47z" />
    <glyph glyph-name="choujiang" unicode="&#xe647;" 
d="M536 425h1q3 -1 7 -1q31 0 57 24q16 15 16 32q0 7 -4 10q-5 5 -15 5q-20 0 -38 -16q-14 -13 -20.5 -30.5t-3.5 -23.5v0zM464 479q-18 16 -38 16q-10 0 -15 -5q-4 -3 -4 -10q0 -17 16 -32q26 -24 57 -24q6 0 8 1q3 6 -3.5 23.5t-20.5 30.5zM510 749q-91 0 -173.5 -35
t-142.5 -95t-95 -142.5t-35 -173t35 -173.5t95 -142.5t142.5 -95t173.5 -35.5t173.5 35.5t142 95t95 142.5t35.5 173.5t-35.5 173t-95 142.5t-142 95t-173.5 35zM496 77h-149q-13 0 -23 10t-10 23v116h182v-149zM512 401q-1 0 -1 -1q-6 -5 -15 -8v-134v0h-182v116
q0 13 10 23t23 10h77q-14 7 -24 16q-23 22 -26.5 48.5t14.5 43.5q15 14 38 14q33 0 61 -25q15 -15 25 -35q10 20 25 35q28 25 61 25q23 0 38 -14q18 -17 14.5 -43.5t-26.5 -48.5q-10 -9 -24 -16h77q13 0 23 -10t10 -23v-116v0h-182v134q-9 3 -15 8q0 1 -1 1zM710 110
q0 -13 -10 -23t-23 -10h-149v149h182v-116z" />
    <glyph glyph-name="ok" unicode="&#xe61f;" 
d="M962 177l-1 2v-2h1zM513 -148q-91 0 -174 35q-80 34 -142 96t-96 142q-35 83 -35 174t35 174q34 80 96 142t142 96q83 35 174 35t174 -35q80 -34 142 -96t96 -142q35 -83 35 -174t-35 -174q-34 -80 -96 -142t-142 -96q-83 -35 -174 -35zM513 705q-83 0 -158 -32
q-73 -31 -129 -87t-87 -129q-32 -75 -32 -158t32 -158q31 -73 87 -129.5t129 -86.5q75 -32 158 -32t158 32q73 30 129.5 86.5t86.5 129.5q32 75 32 158t-32 158q-30 73 -86.5 129t-129.5 87q-75 32 -158 32zM458 149l-163 154l28 29l134 -127l243 232l28 -30z" />
    <glyph glyph-name="jiahao" unicode="&#xe63b;" 
d="M511 747q-90 0 -173 -35.5t-143 -95.5t-95.5 -143t-35.5 -173.5t35.5 -173.5t95.5 -142.5t143 -95t173.5 -35.5t173.5 35.5t142.5 95t95 142.5t35.5 173.5t-35.5 173.5t-95 143t-142.5 95.5t-174 35.5v0zM511 -100q-108 0 -200 53.5t-145.5 145.5t-53.5 200.5t53.5 200.5
t145.5 145.5t200.5 53.5t200.5 -53.5t145.5 -145.5t53.5 -200.5t-53.5 -200.5t-145.5 -145.5t-201 -53.5v0zM680 332h-137v136q0 9 -10.5 16.5t-21 7.5t-21 -7.5t-10.5 -16.5v-136h-137q-9 0 -16.5 -10.5t-7.5 -21t7.5 -21t16.5 -10.5h137v-138q0 -9 10.5 -16t21 -7t21 7
t10.5 16v138h137q9 0 16 10.5t7 21t-7 21t-16 10.5v0zM680 332z" />
    <glyph glyph-name="sheyingsheji" unicode="&#xe60d;" 
d="M764 547h-629q-31 0 -52.5 -21.5t-21.5 -51.5v-415q0 -30 21.5 -51.5t52.5 -21.5q12 0 21 9t9 22t-9 22t-21 9q-5 0 -8.5 3.5t-3.5 7.5v16l204 244l129 -169q9 -12 24 -12.5t24 11.5l87 108l165 -209h1h-487q-12 0 -21 -9t-9 -22t9 -22t21 -9h494q31 0 52.5 21.5
t21.5 51.5v415q0 30 -21.5 51.5t-52.5 21.5zM616 326q-9 11 -24 11v0q-15 0 -24 -11l-87 -108l-128 168q-9 12 -23.5 12.5t-24.5 -11.5l-182 -217v304q0 5 3.5 8.5t8.5 3.5h629q5 0 8.5 -3.5t3.5 -8.5v-352zM889 675h-584q-13 0 -22 -9t-9 -22t9 -22t22 -9h584q5 0 8.5 -3.5
t3.5 -7.5v-380q0 -13 9 -22t22 -9t22 9t9 22v380q0 30 -21.5 51.5t-52.5 21.5z" />
    <glyph glyph-name="xin" unicode="&#xe613;" 
d="M714 704q-58 0 -111 -24.5t-90 -67.5q-38 43 -91 67.5t-111 24.5q-104 0 -175 -70t-71 -172q0 -27 6 -54.5t14.5 -51t27 -52.5t33 -50.5t45 -54t50.5 -53t60.5 -58.5t64 -59.5t72.5 -65.5q7 -5 10 -8l65 -57l65 57q2 3 9 8q49 44 72.5 65.5t64.5 59.5t60.5 58.5t50 53
t45 54t33.5 50.5t27 52.5t14 51t6 54.5q0 102 -71 172t-175 70v0zM540 13l-9 -8l-18 -17l-19 17l-9 8q-70 63 -106 96t-82.5 79t-75.5 81q-87 105 -87 193q0 75 51 125t126 50q42 0 81.5 -18.5t67.5 -50.5l53 -61l52 61q28 32 67.5 50.5t81.5 18.5q76 0 126 -50
q51 -50 51 -125q0 -88 -87 -193q-29 -35 -75 -81t-82 -79t-107 -96v0zM540 13z" />
    <glyph glyph-name="yanzhengma" unicode="&#xe61a;" 
d="M831 86h-46v-69q-1 -7 -6.5 -13t-11.5 -8l-5 -2h-575q-7 1 -12.5 6.5t-7.5 11.5l-3 5v736q-1 7 5 13t12 8l6 2h575q8 0 14 -6t7 -12l2 -5v-299h46v345q-2 9 -8 15t-10 7l-5 1h-667q-8 -1 -13.5 -6.5t-7.5 -11.5l-2 -5v-828q2 -16 23 -23v0h667q11 3 16.5 8.5t6.5 10.5v4
v115zM716 454v69h-483v-69h483zM854 408l-207 -207l-92 115q-23 7 -35 5t-15 -10t-2 -17t3 -17l3 -7l92 -115q12 -14 26 -19t25 -2.5t20.5 7t15.5 9.5l5 5l207 207q4 21 1.5 32.5t-10.5 15t-16 3t-15 -2.5z" />
    <glyph glyph-name="guanbi" unicode="&#xe654;" 
d="M937 13v0v0v0zM1002 301q0 100 -39 191t-104.5 157t-156.5 104.5t-191 38.5t-191 -38.5t-157 -104.5t-104.5 -157t-38.5 -191t38.5 -191t104.5 -156.5t157 -104.5t191 -39t191 39t156.5 104.5t104.5 156.5t39 191zM511 -120q-114 0 -211 56.5t-153.5 153.5t-56.5 212
q0 114 56 211t153.5 153.5t211.5 56.5t211 -56.5t153.5 -153.5t56.5 -211q0 -115 -56.5 -212t-153.5 -153.5t-211 -56.5zM713 147l-152 153l152 150q10 10 10 25t-10.5 25t-25 10t-24.5 -10l-152 -150l-150 150q-11 10 -25.5 10t-25 -10t-10.5 -25t11 -25l149 -150
l-150 -149q-10 -11 -10 -25.5t10 -24.5t24.5 -10t24.5 10l151 149l153 -152q10 -10 24.5 -10t24.5 10t10 24.5t-9 24.5v0z" />
    <glyph glyph-name="iconfontgouwuche" unicode="&#xe643;" 
d="M983 310q-4 -29 -28.5 -49.5t-53.5 -20.5h-484q-29 0 -53 20.5t-28 49.5l-54 390q-4 29 13.5 46t46.5 12l622 -110q29 -5 46 -29.5t13 -53.5zM883 197h-590l-78 583q-2 13 -11 22t-21 9h-6h-141q-14 0 -24.5 -9t-10.5 -22.5t10.5 -22.5t24.5 -9h119l78 -583q2 -14 12 -23
t22 -8h3h613q15 0 25.5 9t10.5 22.5t-10.5 22.5t-25.5 9zM469 23.5q0 -29.5 -20.5 -50t-50 -20.5t-50 20.5t-20.5 50t20.5 50t50 20.5t50 -20.5t20.5 -50zM852 23.5q0 -29.5 -20.5 -50t-50 -20.5t-50 20.5t-20.5 50t20.5 50t50 20.5t50 -20.5t20.5 -50z" />
    <glyph glyph-name="meishi" unicode="&#xe657;" 
d="M729 776q-58 0 -99 -49.5t-41 -119t41 -118.5t99 -49t99 49t41 118.5t-41 119t-99 49.5zM350.5 831q-11.5 0 -20 -8.5t-8.5 -19.5v-56v-28v-105q0 -29 -15.5 -52t-39.5 -33v274q0 11 -8.5 19.5t-20 8.5t-19.5 -8.5t-8 -19.5v-274q-25 10 -40.5 33t-15.5 52v105v28v56
q0 11 -8.5 19.5t-20 8.5t-19.5 -8.5t-8 -19.5v-56v-28v-112q0 -50 31.5 -88.5t80.5 -47.5v-506q0 -11 8 -19.5t19.5 -8.5t20 8.5t8.5 19.5v506q48 9 79.5 47.5t31.5 88.5v112v28v56q0 11 -8 19.5t-19.5 8.5zM925 608q0 93 -57.5 158.5t-138.5 65.5t-138.5 -65.5
t-57.5 -158.5q0 -84 48.5 -147t120.5 -75l-0.5 -1l-0.5 -1v-420q0 -11 8.5 -19.5t20 -8.5t19.5 8.5t8 19.5v420v1v1q71 12 119.5 75t48.5 147z" />
    <glyph glyph-name="xiajiantou1-copy" unicode="&#xe601;" 
d="M533 248v0v0l205 203q7 7 7 17.5t-7 17.5t-17.5 7t-17.5 -7l-187 -186l-186 188q-7 7 -17.5 7t-18 -7t-7.5 -17.5t8 -17.5l202 -205h0.5h0.5q7 -7 17.5 -7.5t17.5 7.5z" />
    <glyph glyph-name="sanjiaogouxuan" unicode="&#xe666;" 
d="M65 33l894 783v-783h-894v0zM65 33zM903 389l-30 30q-6 6 -12 0l-220 -220q-6 -6 -12 0l-126 126q-6 6 -12 0l-29 -28q-6 -6 0 -13l167 -166q6 -6 12 0l33 33v0l229 229v0q2 2 2 4.5t-2 4.5v0z" />
    <glyph glyph-name="gouwuche" unicode="&#xe61b;" 
d="M186 701q17 0 29 -10t16 -20l4 -10q113 -402 127 -449q6 -21 22.5 -35t29.5 -17l13 -4h414q15 9 21 22t4 25t-5.5 23t-8.5 17l-4 7h-374q-12 0 -21.5 9t-12.5 19l-3 9q-122 435 -131 468q-5 14 -14 23.5t-17 11.5l-7 2h-187q-21 -27 -17.5 -47.5t12 -32t10.5 -11.5h100z
M399 34.5q0 -27.5 19.5 -46.5t46.5 -19t46 19t19 46.5t-19 46.5t-46 19t-46.5 -19t-19.5 -46.5zM717 34.5q0 -27.5 19.5 -46.5t46.5 -19t46 19t19 46.5t-19 46.5t-46 19t-46.5 -19t-19.5 -46.5zM420 664l86 -302q2 -4 6 -10t20 -17t37 -11h241q2 0 5 0.5t11 2t14.5 4.5
t14 11t11.5 18q6 17 29 93t43.5 143.5l20.5 67.5q0 2 1 5.5t0.5 13t-3.5 16.5t-12 12.5t-23 5.5h-465l-19 -5q-27 -13 -18 -48z" />
    <glyph glyph-name="user" unicode="&#xe63c;" 
d="M638 348q55 31 87.5 85.5t32.5 118.5q0 97 -69 166t-166.5 69t-166.5 -69t-69 -166q0 -62 30.5 -115t81.5 -84q-115 -37 -188.5 -135t-73.5 -222v-8v-7h53q0 1 -0.5 6.5t-0.5 8.5q0 87 43.5 161t117.5 117t162 43t162 -43t117.5 -117t43.5 -161q0 -3 -0.5 -8.5t-0.5 -6.5
h52q1 2 1 7v8q0 120 -69.5 216t-179.5 136zM339 552.5q0 75.5 54 129t129.5 53.5t129.5 -53.5t54 -129t-54 -129t-129.5 -53.5t-129.5 53.5t-54 129z" />
    <glyph glyph-name="icon-left" unicode="&#xe60a;" 
d="M745 -87l-497 471l497 471l31 -33l-463 -438l465 -438zM745 -87z" />
    <glyph glyph-name="tongzhi" unicode="&#xe675;" horiz-adv-x="1128" 
d="M763 653.5q8 9.5 20 11t21 -6.5l14 -14t31.5 -38t40 -59.5t31.5 -74.5t14 -86q0 -35 -7 -69t-18.5 -61.5t-25 -52.5t-27 -43.5t-25 -32t-18.5 -20.5l-7 -7q-9 -9 -21.5 -9t-21.5 8.5t-9 21.5t9 22q5 3 12.5 10t26.5 31t33.5 50t26 66t11.5 82q0 37 -11 74t-27 64
t-32 48.5t-27 32.5l-11 11q-10 7 -10.5 19.5t7.5 22zM679.5 571q10.5 6 22.5 3.5t18 -12.5q2 -3 6.5 -8.5t15.5 -23t19.5 -37t15.5 -50t7 -61.5q0 -33 -7 -63.5t-16 -51.5t-18.5 -37t-16.5 -23l-7 -7q-6 -12 -18.5 -15.5t-23.5 2.5t-14 18.5t4 24.5l6 6t13.5 18.5t17 30.5
t13.5 42t6 53q0 28 -5.5 54t-14 43t-16.5 30t-14 19l-6 5q-6 10 -2 22t14.5 18zM486 700l-125 -125h-91q-23 -4 -37.5 -14.5t-19 -23.5t-6 -25t0.5 -20l2 -8v-242q0 -26 15 -41.5t30 -16.5l15 -2h91l121 -121q20 -27 49 -29.5t50 15.5t21 44l1 582q0 28 -20.5 43t-48.5 10.5
t-48 -26.5zM542 91l-121 121q-28 30 -60 30h-60q-31 0 -31 38v197q0 15 7.5 24t14.5 11t12 2h57q29 3 60 30q19 14 49.5 44t50.5 54l21 23v-574z" />
    <glyph glyph-name="shangwang" unicode="&#xe67c;" 
d="M701 271q-79 79 -191 79t-191 -79l1 -2q-14 -21 3 -40q8 -9 20.5 -11t22.5 5l2 -2q57 57 141.5 57t141.5 -57l2 2q21 -14 40 3q9 8 10.5 20.5t-4.5 22.5l2 2v0zM701 271zM511 182q-26 0 -44 -18t-18 -44t18 -44t43.5 -18t44 18t18.5 44t-18.5 44t-43.5 18v0zM511 182z
M950 525l-1 1l1 2q-119 119 -279 161t-320.5 0t-279.5 -161l2 -2q-10 -9 -10 -22t8 -23q10 -11 23.5 -11.5t23.5 8.5q1 1 2 1l1 -1q106 106 248 143.5t284 -0.5t247 -143l2 1q9 -9 22 -9.5t23 8.5q11 9 11.5 23t-8.5 24v0zM950 525zM819 396l1 2q-62 62 -142 95t-167 33v0
q-88 0 -168 -33t-142 -95l1 -2q-9 -9 -9.5 -22t8.5 -23t23 -11t24 8q1 1 1 2l2 -2q52 52 119 80t141 28v0q73 0 140 -28t120 -80l1 1q9 -9 22.5 -9.5t22.5 8.5q11 9 11.5 23t-8.5 24q0 1 -1 1v0zM819 396z" />
    <glyph glyph-name="youjiantoushixinxiao" unicode="&#xe637;" 
d="M669 377l-296 -295v589z" />
    <glyph glyph-name="shangjiantou1" unicode="&#xe6d1;" 
d="M837 160l37 -37h76l10 67l-40 48l-375 396q-8 8 -20 8t-20 -8l-393 -338l-47 -48v-67l71 -21l42 41l347 291l312 -332v0zM837 160z" />
    <glyph glyph-name="shouye" unicode="&#xe603;" 
d="M854 292q-8 0 -13.5 -5t-5.5 -14v-219q0 -15 -10.5 -26t-25.5 -11h-585q-16 0 -26.5 11t-10.5 26v219q0 9 -5 14t-13.5 5t-13.5 -5t-5 -14v-219q0 -30 21.5 -51.5t52.5 -21.5h585q30 0 51.5 21.5t21.5 51.5v219q0 9 -5 14t-13 5v0zM901 506v0l-98 261v0q-6 24 -25.5 39.5
t-44.5 15.5h-2v0h-444v0h-6q-26 0 -44.5 -15.5t-23.5 -39.5v0l-98 -261v0q-13 -26 -13 -59q0 -56 40.5 -96.5t96.5 -40.5q46 0 82.5 28t49.5 72q15 -44 53 -72t85.5 -28t86 28t53.5 72q12 -44 48.5 -72t83.5 -28q56 0 96.5 40.5t40.5 96.5q-6 34 -17 59v0zM777 346
q-41 0 -71 30t-30 71v2v0v0q0 13 -8.5 22t-22.5 9q-12 0 -21.5 -9.5t-9.5 -21.5v-2v0q-4 -43 -35 -72t-74.5 -29t-75.5 30t-34 73v4q0 12 -9.5 21.5t-21.5 9.5q-13 0 -22.5 -9t-9.5 -22v0v-6q0 -41 -29.5 -71t-70.5 -30t-71 30t-30 71q0 17 6 31v0l2 4l1 3l114 299h501
l115 -304q8 -22 8 -35q0 -40 -30 -69.5t-71 -29.5v0zM707 712h-402q-8 0 -13 -5t-5 -13t5 -13t13 -5h402q9 0 14 5t5 13t-5 13t-14 5z" />
    <glyph glyph-name="dingdan" unicode="&#xe64b;" 
d="M512 -128q-138 0 -256 69t-187 187t-69 256t69 256t187 187t256 69t256 -69t187 -187t69 -256t-69 -256t-187 -187t-256 -69zM512 864q-129 0 -239.5 -65t-175.5 -175.5t-65 -239.5t65 -239.5t175.5 -175.5t239.5 -65t239.5 65t175.5 175.5t65 239.5t-65 239.5
t-175.5 175.5t-239.5 65zM333 576h38v38h-38v-38zM384 358h256v39h-256v-39zM333 250h38v38h-38v-38zM333 358h38v39h-38v-39zM333 467h38v39h-38v-39zM384 467h256v39h-256v-39zM384 576h256v38h-256v-38zM749 301v339q0 28 -23.5 46t-53.5 18h-384q-29 0 -46.5 -17.5
t-17.5 -46.5v-454q0 -30 21 -53.5t49 -23.5h282q20 -15 29 -21.5t29 -15t38 -8.5q53 0 93.5 38t40.5 90q-11 78 -57 109zM384 288v-38h166q-12 -39 -12 -58q0 -13 12 -51h-256q-13 0 -22.5 11.5t-9.5 26.5v461q0 26 32 26h384q39 0 39 -26v-320q-19 6 -39 6q-64 0 -102 -38
h-192zM640 128l-64 70l26 20l44 -52l103 90l19 -19z" />
    <glyph glyph-name="shouye1" unicode="&#xe604;" 
d="M949 377l-440 411l-441 -410q-6 -6 -6.5 -15t5.5 -15.5t15 -6.5t15 6l412 383l411 -384q6 -6 14 -6q10 0 16 7q6 6 6 15t-7 15v0zM815 368q-9 0 -15.5 -6t-6.5 -15v-327h-170v227h-228v-227h-171v327q0 9 -6 15t-15 6t-15.5 -6t-6.5 -15v-370h257v228h142v-228h256v370
q0 9 -6 15t-15 6v0zM665 674h128v-114q0 -9 6.5 -15t15.5 -6t15 6t6 15v157h-171q-9 0 -15 -6.5t-6 -15.5t6 -15t15 -6v0zM665 674z" />
    <glyph glyph-name="ipad" unicode="&#xe743;" 
d="M999 732v-692q-8 -15 -35 -15h-889q-25 0 -31 6t-6 32v644q0 27 6 33t32 6h675h214q26 0 34 -14zM518 104h332q20 0 24.5 4t4.5 23v509q0 18 -4.5 22.5t-22.5 4.5h-665q-20 0 -25 -5t-5 -25v-504q0 -20 4.5 -24.5t24.5 -4.5h332zM941 420q-16 1 -26.5 -9.5t-11.5 -25.5
q0 -17 9 -26t26 -10q17 0 26.5 9.5t9.5 26.5q1 35 -33 35z" />
    <glyph glyph-name="youjiantou" unicode="&#xe61e;" 
d="M313 15q-5 5 -5 12t5 12l345 344l-347 346q-5 5 -5 12t5 12t12 5t12 -5l358 -358q5 -5 5 -12t-5 -12l-356 -356q-5 -5 -12 -5t-12 5z" />
    <glyph glyph-name="fangdajing" unicode="&#xe627;" 
d="M479.5 824q-105.5 0 -195 -52t-141.5 -141t-52 -194.5t52 -195t141.5 -141.5t195 -52t195 52t141.5 141.5t52 195t-52 194.5t-141.5 141t-195 52zM479.5 155q-116.5 0 -198.5 82.5t-82 199t82 198.5t198.5 82t198.5 -82t82 -198.5t-82 -199t-198.5 -82.5zM953 -15
q-15 -15 -36 -15t-36 15l-151 152q-15 14 -15 35t15 36v0q14 14 35 14t36 -14l152 -152q14 -15 14 -35.5t-14 -35.5v0zM273 477h419v-88h-419v88zM438 643h89v-420h-89v420z" />
    <glyph glyph-name="jiudian" unicode="&#xe61d;" 
d="M512 -51h-292q-9 0 -11 1.5t-2 10.5v537q0 35 23.5 58t59.5 23h53q9 0 9 9v72q0 10 2 12t12 2h180h115q8 0 9.5 -1.5t1.5 -9.5v-75q0 -9 9 -9q7 0 21.5 0.5t25.5 0t21 -1.5q29 -4 48 -26t19 -51v-243.5t1 -297.5q0 -7 -2.5 -9t-9.5 -2h-293zM263 257v0v-158v-87
q0 -8 5 -8t14.5 -0.5t14.5 -0.5h47.5h47.5q9 0 10.5 1.5t1.5 9.5q0 94 -1 120q0 10 11 10h75q10 0 11.5 -2t1.5 -12v-58.5v-59.5q0 -7 3 -8q5 -3 11 0.5t6 9.5v119q-1 11 11 11h76q8 0 9.5 -1.5t1.5 -9.5v-57v-56q0 -13 2.5 -15t15.5 -2q1 0 4 0.5t4 0.5h48q4 0 26 -0.5
t26 -0.5q11 1 13 3t2 14v316v160q0 28 -28 28h-49q-9 0 -10.5 -1.5t-1.5 -10.5v-50q0 -11 -11 -11h-299q-10 0 -10 11v27v27q0 8 -7 8h-30.5h-29.5q-9 0 -15 -6t-7 -15v-17v-229zM455 565v0v-57q0 -9 9 -9q7 1 17 0q8 0 8 8v18.5v18.5q0 8 8 8h29q9 0 9 -8v-22
q0 -17 2.5 -20t19.5 -3q7 0 9.5 2.5t2.5 8.5q-1 17 -0.5 48t-0.5 48q0 5 1 11q0 11 -2.5 12.5t-19.5 1.5h-5q-7 0 -7 -8v-16.5v-17.5q0 -7 -7 -8q-4 0 -15.5 0.5t-14.5 0.5q-9 -1 -9 8v17v17q0 7 -7 7q-15 -1 -20 -1q-7 1 -7 -7v-58zM538 714q5 27 5 30q1 6 -3 10l-20 20
q-6 5 2 6q4 1 13 2t13 2q8 1 11 8q3 5 12 22q2 5 4 5q1 0 3 -4q10 -19 11 -22q4 -8 14 -9q5 -1 22 -4q6 -1 6.5 -2.5t-3.5 -5.5q-13 -12 -19 -18q-5 -4 -3 -11q2 -9 4 -23q1 -7 -0.5 -8t-8.5 2q-13 7 -21 11q-5 3 -11 0t-25 -13q-3 -2 -4.5 -1t-1.5 3zM413 715q4 25 5 27
q2 8 -4 13q-3 2 -19 18q-6 6 3 7q3 1 11 2t12 2q10 1 13 9q3 5 9 17q1 1 1.5 3.5t1.5 4t3 1.5t3 -1t2 -4l1 -3q6 -12 9 -19t13 -8q4 -1 12.5 -2t12.5 -2q8 -1 2 -6l-20 -20q-5 -4 -3 -11q2 -10 4 -23q1 -8 -0.5 -9t-7.5 3l-22 11t-11 0q-5 -2 -14 -7t-11 -6q-7 -4 -6 3z
M664 718q4 23 5 26q1 6 -4 10q-1 2 -20 20q-6 5 2 6q3 1 11.5 2t12.5 2q11 1 14 9q2 4 11 21q2 5 4 5t4 -5q9 -18 10 -21q3 -8 14 -9q4 -1 13 -2.5t11 -1.5q8 -1 2 -6q-14 -15 -19 -19.5t-4 -12.5q1 -4 5 -25q0 -5 -1 -6t-5 1q-3 2 -11 6t-13 7q-6 3 -12 0l-24 -12
q-4 -2 -6 -2v7zM360 716q1 -7 -5 -4q-21 11 -25 13q-6 3 -11.5 0t-23.5 -12q-5 -2 -6 -2q-1 1 -1 6q3 17 5 25t-5 13q-2 3 -5.5 6t-7 6.5l-5.5 5.5q-6 6 3 7q1 1 7.5 2t9.5 1q17 -1 23 16q1 3 6 14q3 6 5 6t4 -5q9 -16 11 -21q3 -8 13 -9q5 -1 24 -4q5 0 5.5 -1.5t-3.5 -5.5
l-19 -19q-5 -4 -4 -10q1 -3 5 -28zM423 372v-40q0 -8 -8 -8h-83q-7 0 -7 7v83q0 7 7 7h84q7 1 7 -8v-41zM374 282h40q9 0 9 -9v-80q0 -9 -9 -9h-81q-9 0 -9 9q1 44 0 80q0 9 10 9h40zM650 184h-40q-10 0 -9 9v81q0 8 8 8h82q8 0 8 -9v-80q0 -9 -8 -9h-41zM512 421h41
q8 1 8 -7q-1 -42 0 -82q0 -8 -8 -8h-83q-8 0 -8 7v83q0 8 9 7h41zM601 373v41q-1 8 8 7h82q8 1 8 -8v-81q0 -8 -8 -8h-82q-9 0 -8 8v41zM561 233v-40q0 -9 -9 -9h-81q-9 0 -9 9v80q0 9 9 9h81q9 0 9 -8v-41z" />
    <glyph glyph-name="icon-yxj-record" unicode="&#xe639;" 
d="M774 476h-520q-9 0 -16 7t-7 16.5t7 16t16 6.5h520q9 0 16 -6.5t7 -16t-7 -16.5t-16 -7zM623 297h-369q-9 0 -16 8t-7 17.5t7 17.5t16 8h369q9 0 16 -8t7 -17.5t-7 -17.5t-16 -8zM689 118h-435q-9 0 -16 8t-7 17.5t7 17.5t16 8h435q9 0 16 -8t7 -17.5t-7 -17.5t-16 -8z
M660 660h-296q-38 0 -64 25.5t-26 62.5q0 30 19 53.5t50 29.5q7 29 31 47t56 18h164q32 0 56 -18t31 -47q31 -6 50 -29.5t19 -54.5q0 -36 -26 -61.5t-64 -25.5zM430 850q-19 0 -31 -11.5t-12 -28.5q0 -9 -7 -16t-16 -7q-19 0 -31 -10.5t-12 -27.5t12 -27t31 -10h296
q19 0 31 10.5t12 27t-12 27.5t-31 11q-9 0 -16 6.5t-7 16.5q0 17 -12 28t-31 11h-164zM842 -127h-660q-49 0 -83.5 34.5t-34.5 83.5v660q0 49 34.5 83.5t83.5 34.5h115q10 0 17 -7t7 -16.5t-7 -16.5t-17 -7h-115q-29 0 -50 -21t-21 -50v-660q0 -29 21 -50t50 -21h660
q29 0 50 21t21 50v660q0 29 -21 50t-50 21h-115q-10 0 -17 7t-7 16.5t7 16.5t17 7h115q49 0 83.5 -34.5t34.5 -83.5v-660q0 -49 -34.5 -83.5t-83.5 -34.5z" />
    <glyph glyph-name="iphone" unicode="&#xe614;" 
d="M683 848h-341q-32 0 -54.5 -22.5t-22.5 -54.5v-775q0 -32 22.5 -54.5t54.5 -22.5h341q32 0 54.5 22.5t22.5 54.5v775q0 32 -22.5 54.5t-54.5 22.5zM466 786h93q6 0 10.5 -4.5t4.5 -11t-4.5 -11t-10.5 -4.5h-93q-7 0 -11.5 4.5t-4.5 11t4.5 11t11.5 4.5zM512.5 -50
q-19.5 0 -33 13.5t-13.5 33t13.5 33t33 13.5t33 -13.5t13.5 -33t-13.5 -33t-33 -13.5zM729 74h-433v619h433v-619z" />
    <glyph glyph-name="chongyinkafei" unicode="&#xe631;" 
d="M968 344q0 93 -78 125q-35 15 -86 16v1h-748v-295q0 -109 42 -174t103 -92h-95v-51h664v51h-110q39 16 68 46q26 27 43 63t23 69.5t8 53t1 30.5q78 5 121.5 46.5t43.5 110.5v0v0zM692 5q-46 -46 -124 -46h-298q-7 0 -20 2.5t-39.5 16t-48 35.5t-38.5 68.5t-17 108.5v245
h647v-248l-0.5 -7t-1.5 -18t-3 -26t-6.5 -32t-10.5 -34t-16.5 -34t-23.5 -31v0v0zM804 237v197q42 -2 67 -12q46 -20 46 -79q1 -95 -113 -106v0v0zM242 894h51v-340h-51v340v0zM413 894h51v-340h-51v340v0zM566 894h50v-340h-50v340v0zM566 894z" />
    <glyph glyph-name="yanzhengma1" unicode="&#xe611;" 
d="M511.5 -2q8.5 0 14.5 6t6 14.5t-6 14.5t-14.5 6t-14.5 -6t-6 -14.5t6 -14.5t14.5 -6zM674 832h-325q-34 0 -58 -23.5t-24 -57.5v-733q0 -33 24 -57t58 -24h325q34 0 58 24t24 57v733q0 34 -24 57.5t-58 23.5zM715 18q0 -16 -12 -28t-29 -12h-325q-17 0 -29 12t-12 28v41
h407v-41zM715 100h-407v570h407v-570zM715 710h-407v41q0 17 12 29t29 12h325q17 0 29 -12t12 -29v-41zM532 771h-41q-8 0 -14 -6t-6 -14t6 -14t14 -6h41q8 0 14 6t6 14t-6 14t-14 6zM389 385zM369 384.5q0 8.5 6 14.5t14.5 6t14.5 -6t6 -14.5t-6 -14.5t-14.5 -6t-14.5 6
t-6 14.5zM511 385zM491 384.5q0 8.5 6 14.5t14.5 6t14.5 -6t6 -14.5t-6 -14.5t-14.5 -6t-14.5 6t-6 14.5zM634 385zM613 384.5q0 8.5 6 14.5t14.5 6t14.5 -6t6 -14.5t-6 -14.5t-14.5 -6t-14.5 6t-6 14.5z" />
    <glyph glyph-name="hengxian" unicode="&#xe74a;" 
d="M933 377h-823v24h823v-24z" />
    <glyph glyph-name="daipingjia" unicode="&#xe60c;" 
d="M191 766h641q52 0 88.5 -36.5t36.5 -88.5v-356q0 -52 -36.5 -88.5t-88.5 -36.5h-298l-153 -153q-5 -5 -12.5 -5t-12.5 5.5t-5 12.5t5 13l158 158q2 2 5.5 3.5t6.5 1.5h306q37 0 63.5 26t26.5 63v357q0 36 -26.5 62.5t-63.5 26.5h-641q-37 0 -63 -26.5t-26 -62.5v-357
q0 -37 26 -63t63 -26h86q7 0 12.5 -5.5t5.5 -12.5t-5.5 -12.5t-12.5 -5.5h-86q-52 0 -88.5 36.5t-36.5 88.5v357q0 51 36.5 87.5t88.5 36.5v0zM687 462zM731 462zM509 462zM553 462zM330 462zM375 462zM255 452zM213 451.5q0 17.5 12.5 29.5t29.5 12t29 -12t12 -29.5
t-12 -29.5t-29 -12t-29.5 12t-12.5 29.5zM512 452zM471 451.5q0 17.5 12 29.5t29 12t29 -12t12 -29.5t-12 -29.5t-29 -12t-29 12t-12 29.5zM765 452zM724 451.5q0 17.5 12 29.5t29 12t29.5 -12t12.5 -29.5t-12.5 -29.5t-29.5 -12t-29 12t-12 29.5z" />
    <glyph glyph-name="biji-copy" unicode="&#xe606;" 
d="M614 792v-51h-408q-27 0 -39.5 -16t-12.5 -36v-294.5v-316.5q0 -23 18.5 -36.5t33.5 -13.5h613q20 0 35 17t15 54v385h52v-407q0 -102 -103 -102h-613q-43 0 -72.5 26.5t-29.5 76.5v613q0 46 27.5 73.5t74.5 27.5h409v0zM614 792zM893 662q-69 70 -88 90q-17 18 -38 19
t-39 -16q-6 -6 -51 -49t-104 -100t-117 -113t-97.5 -94.5l-39.5 -38.5l-116 -288l266 119q393 379 420 405q16 18 16 36.5t-12 29.5v0zM269 140l68 166l86 -93zM461 248l-93 99l289 278l96 -100zM786 560l-94 97l72 69l95 -94zM786 560z" />
    <glyph glyph-name="shuangjiantou-copy" unicode="&#xe697;" 
d="M544 664l-33 -34l230 -230l-230 -230l33 -33l264 263zM280 664l-34 -34l230 -230l-230 -230l34 -33l263 263z" />
    <glyph glyph-name="weiyuyongpin" unicode="&#xe616;" 
d="M215 889h-40q-23 0 -39 -16.5t-16 -38.5v-899q0 -23 16 -39t39 -16h40q22 0 38.5 16.5t16.5 39.5v545h126v359h-127q-3 20 -18 34.5t-36 14.5zM354 772h-84v26h84v-26zM270 650v20h84v-20h-84zM270 548h84v-25h-84v25zM270 588v20h84v-20h-84zM270 710v20h84v-20h-84z
M171 834q0 3 4 3h40q3 0 3 -3v-898q0 -4 -3 -4h-40q-4 0 -4 4v898zM807 727q0 17 -10 30t-26 18l-20 91q-3 13 -17 18v1q-3 0 -6 1l-1.5 0.5t-2.5 0.5h-141q-10 0 -16 -7t-7 -17l-20 -88q-15 -5 -25 -18t-10 -29l-66 -794v-2q0 -22 15 -37.5t37 -15.5h330q22 0 37 16t15 38z
M497 6h318l6 -75l-331 -1zM705 834l13 -56h-124l12 56h99zM811 49h-311l56 675v2q0 1 1 1h198z" />
    <glyph glyph-name="location" unicode="&#xe651;" 
d="M519 -33l-12 14q-16 20 -37 45.5t-71.5 95t-88.5 130t-69 131t-31 115.5q0 126 90.5 214.5t218 88.5t218 -88.5t90.5 -214.5q0 -45 -31 -115t-69 -131.5t-88 -130t-72 -95.5t-36 -45zM518.5 770q-114.5 0 -195.5 -79.5t-81 -192.5q0 -46 33.5 -118.5t86.5 -150
t88.5 -125.5t68.5 -88q32 40 68 88t88.5 125.5t86.5 150t34 118.5q0 113 -81.5 192.5t-196 79.5zM519 435q-41 0 -70.5 29.5t-29.5 70.5t29.5 70t70.5 29t70 -29t29 -70t-29 -70.5t-70 -29.5zM519 603q-28 0 -48 -20t-20 -48t20 -48t48 -20t48 20t20 48t-20 48t-48 20z" />
    <glyph glyph-name="icon313" unicode="&#xe6ad;" 
d="M13 132v632h997v-632h-997zM939 700h-855v-503h855v503zM725 2h-427v81h427v-81z" />
    <glyph glyph-name="anzhuo" unicode="&#xe617;" 
d="M888 575q-26 0 -44.5 -18.5t-18.5 -44.5v-247q0 -27 18.5 -45.5t44.5 -18.5t44 18.5t18 45.5v247q0 26 -18 44.5t-44 18.5v0v0v0zM136 575q-26 0 -44 -18.5t-18 -44.5v-247q0 -27 18 -45.5t44 -18.5t44.5 18.5t18.5 45.5v247q0 26 -18.5 44.5t-44.5 18.5v0v0v0zM236 573
v-452q0 -20 14.5 -34t34.5 -14h55v-138q0 -26 18.5 -44.5t44 -18.5t44 18.5t18.5 44.5v138h97v-138q0 -26 18 -44.5t44 -18.5t44 18.5t18 44.5v138h56q20 0 34 14t14 34v452h-554v0v0v0v0zM643 807l52 75q5 8 -2 13t-13 -3l-53 -78q-55 22 -115 22t-115 -22l-53 78
q-6 8 -13 3t-2 -13l52 -75q-62 -28 -101.5 -79.5t-44.5 -114.5h554q-5 63 -44.5 114.5t-101.5 79.5v0v0v0zM395 690q-13 0 -22 9t-9 22t9 21.5t22 8.5t22 -8.5t9 -21.5t-9 -22t-22 -9v0v0v0zM633 690q-13 0 -22 9t-9 22t9 21.5t21.5 8.5t21.5 -8.5t9 -21.5t-9 -22t-21 -9v0
v0v0z" />
    <glyph glyph-name="shang" unicode="&#xe989;" 
d="M661 335l-143 262q-2 4 -6 4t-6 -4l-143 -262q-2 -4 3 -4h69v-276h152v276h71q5 0 3 4z" />
    <glyph glyph-name="xia" unicode="&#xe98a;" 
d="M363 320l143 -262q2 -3 6 -3t6 3l143 262q2 5 -3 5h-69v276h-152v-276h-71q-5 0 -3 -5z" />
    <glyph glyph-name="kefangyongpin" unicode="&#xe621;" 
d="M329 886q-9 1 -21.5 1.5t-41 -2t-55 -9t-59 -22t-57.5 -38.5q-87 -77 -86 -227l14 -253v-2v-2q-1 -5 1 -11l14 -244q0 -83 62 -144t146 -61h5q82 0 130 53.5t53 151.5q3 122 32 387q16 145 16 179q0 242 -153 243v0zM387 86q-2 -30 -9 -55.5t-21.5 -49.5t-41.5 -38
t-64 -14h-5q-61 0 -110 44.5t-49 112.5l-15 243q3 14 7 29.5t14 43.5t21.5 53.5t30.5 54t40.5 48.5t51.5 34t63 15q1 0 1.5 -0.5t1 -0.5t1 0.5t1.5 0.5q20 -1 39 -26t31.5 -62.5t21 -73.5t11.5 -66q0 -1 0.5 -1h0.5q-20 -185 -22 -292v0zM423 518q-37 120 -97 137v69
q0 9 -7.5 17t-16 8t-16 -8t-7.5 -17v-68q-122 -13 -197 -164q-8 -15 -17 -37l-7 129q0 125 69 188q65 58 175 58q16 0 21 -1h3q16 0 29 -3t28 -15t25.5 -32t17.5 -57t7 -87q0 -27 -10 -117v0zM695 886q-153 -1 -153 -243q0 -34 16 -179q29 -265 32 -387q5 -98 53 -151.5
t130 -53.5h5q84 0 146 61t62 144l14 244q2 6 1 11v1v3l14 253q1 150 -86 227q-26 23 -58 38.5t-58.5 22t-55 9t-41 2t-21.5 -1.5v0zM637 86q-2 106 -22 292h0.5t0.5 1q3 31 11.5 66.5t21 73t31.5 62.5t39 26q1 0 1.5 -0.5t1 -0.5t1 0.5t1.5 0.5q33 -1 63 -15t51.5 -34.5
t40.5 -48.5t30.5 -53.5t21.5 -53.5t14 -43.5t7 -29.5l-15 -243q0 -68 -49 -112.5t-110 -44.5h-5q-37 0 -64 14t-41.5 38t-21.5 49.5t-9 55.5v0zM601 518q-10 91 -10 117q0 50 7 86.5t17.5 57t25.5 32t28 15t30 3.5h2h1t3 0.5t4.5 0.5h6h6.5q110 0 175 -58q69 -63 69 -188
l-7 -129q-9 21 -17 37q-75 151 -197 164v68q0 9 -7.5 17t-16 8t-16 -8t-7.5 -17v-69q-59 -17 -97 -137v0z" />
    <glyph glyph-name="baoji-copy" unicode="&#xe600;" horiz-adv-x="1026" 
d="M982 518v-170l36 -35l-75 -78l-75 75l51 47v134q-311 -128 -337 -140q-36 -16 -66 -17t-66 13q-304 115 -391 157q-58 27 -59 46.5t60 43.5q57 21 196 73t182 68q35 14 50.5 19t38.5 4t48 -13q44 -19 196.5 -78t206.5 -81q21 -9 32.5 -17.5t14 -14t-2 -11.5t-10 -9
t-16 -8t-14.5 -8v0zM592 284q27 11 95 42.5t108 48.5v-268q-5 -4 -12.5 -11t-34.5 -25.5t-57 -33t-77.5 -26t-96.5 -11.5q-54 0 -103.5 11t-82.5 27t-58.5 31.5t-37.5 26.5l-12 11v250q29 -11 209 -73q42 -15 82.5 -16t77.5 16v0zM592 284z" />
    <glyph glyph-name="yifukuan" unicode="&#xe60e;" horiz-adv-x="1058" 
d="M486 310h-293q-6 0 -10 -5.5t-4 -14t4 -14.5t10 -6h293q6 0 10 6t4 14.5t-4 14t-10 5.5zM998 365.5q-61 60.5 -148 60.5q-86 0 -148 -60q-61 -62 -61 -148q0 -87 60 -148q61 -61 148 -61q88 0 148 61q62 61 62 148t-61 147.5zM978 90q-53 -54 -128 -54t-128.5 53.5
t-53.5 128.5t53.5 128.5t128.5 53.5t128 -53q53 -54 53 -129t-53 -128zM624 105h-502q-25 0 -42.5 16t-17.5 38v342h908v-63q24 -14 42 -28v253q1 37 -25 66q-32 33 -80 33h-785q-45 0 -76.5 -29t-31.5 -70v-504q0 -42 31 -70.5t77 -28.5h530q-15 19 -28 45zM62 663
q0 22 18 38t42 16h783q26 0 44.5 -16t18.5 -38v-120h-906v120zM952 290q-6 6 -15 5.5t-14 -6.5l-98 -102l-50 35q-8 5 -16.5 3t-13.5 -9t-3 -16t9 -13l64 -44q6 -3 13 -3q10 -1 17 6l108 114q6 6 5.5 15t-6.5 15z" />
    <glyph glyph-name="reshui" unicode="&#xe667;" 
d="M1021 55v695q0 61 -42.5 103.5t-102.5 42.5h-328q-61 0 -103.5 -42.5t-42.5 -103.5v-36h-255q-30 0 -47 -1t-38.5 -5.5t-33 -13t-19.5 -24.5t-8 -40h838q0 24 -8 40t-19.5 24.5t-33 13t-38.5 5.5t-47 1h-218v36q0 30 21 51.5t52 21.5h328q30 0 51 -21.5t21 -51.5v-875h2
v-3h73v183h-2zM256 302h73v-145h-73v145zM37 302h73v-145h-73v145zM256 558h73v-146h-73v146zM37 558h73v-146h-73v146zM475 302h73v-145h-73v145zM693 558h73v-146h-73v146zM475 558h73v-146h-73v146zM693 302h73v-145h-73v145z" />
    <glyph glyph-name="reshui-" unicode="&#xe745;" 
d="M757 418v-193q0 -124 -87.5 -211.5t-211.5 -87.5h-102q-124 2 -211.5 90t-87.5 212v193h700v-3zM777 475h-740q-15 0 -26 -11t-11 -26v-210q0 -97 47.5 -179t129.5 -129.5t179 -47.5h102q96 0 178 47.5t130 129.5t48 179v210q0 17 -11 27t-26 10zM896 356q30 0 50.5 -21
t20.5 -50.5t-20.5 -50.5t-50.5 -21t-50.5 21t-20.5 50.5t20.5 50.5t50.5 21zM896 412q-53 0 -90.5 -37t-37.5 -90.5t37.5 -91t90.5 -37.5t90.5 37.5t37.5 91t-37.5 90.5t-90.5 37zM205 535q-13 0 -20 11q-4 9 -2.5 18t8.5 13q17 11 36.5 32.5t19.5 41.5t-25 40
q-44 31 -48 80q0 16 5.5 32.5t13.5 28.5t15.5 22t13.5 16l6 6q6 6 15 5t16 -8q15 -20 -3 -34q-37 -37 -37 -65q0 -22 31 -49q46 -35 46 -76q-1 -21 -11.5 -41.5t-27 -35.5t-25 -22t-16.5 -12q-3 -3 -11 -3zM375 535q-12 0 -19 11q-5 9 -3 18t8 13q17 11 37 32.5t20 41.5
t-25 40q-52 34 -52 83q-1 25 12.5 50.5t26.5 38.5t15 13q7 6 16 5t16 -8q8 -8 8 -17.5t-8 -16.5q-14 -10 -26.5 -29t-10.5 -39q0 -22 31 -49q45 -35 45 -76q0 -21 -11 -41t-27 -35.5t-24.5 -22.5t-16.5 -12h-12zM546 535q-12 0 -20 11q-4 9 -2.5 18t8.5 13q17 11 37 32.5
t20 41.5t-26 40q-51 34 -51 83q-1 25 12 50.5t26 38.5t16 13q7 6 16 5t15 -8q9 -8 9 -17.5t-9 -16.5q-13 -10 -26 -29t-11 -39q0 -22 32 -49q45 -35 45 -76q-1 -21 -11.5 -41t-27 -35.5t-24.5 -22.5t-16 -12h-12z" />
    <glyph glyph-name="daifukuan" unicode="&#xe63a;" 
d="M816 48q-60 0 -102 42t-42 102t42 102t102 42t102 -42t42 -102t-42 -102t-102 -42zM816 304q-46 0 -79 -33t-33 -79.5t33 -79t79 -32.5t79 32.5t33 79t-33 79.5t-79 33zM816 160h-32q-7 0 -11.5 4.5t-4.5 11.5t4.5 11.5t11.5 4.5h16v48q0 7 4.5 11.5t11.5 4.5t11.5 -4.5
t4.5 -11.5v-64q0 -7 -4.5 -11.5t-11.5 -4.5zM880 415q-7 0 -11.5 4.5t-4.5 11.5v97h-768v-320q0 -40 28 -68t68 -28h416q7 0 11.5 -4.5t4.5 -11.5t-4.5 -11.5t-11.5 -4.5h-417v0q-51 0 -87.5 35.5t-39.5 86.5v0v0v395v0q2 50 38 86t87 37v0h581v0q52 -1 88.5 -37.5
t37.5 -88.5v0v-163q0 -7 -4.5 -11.5t-11.5 -4.5zM864 592q0 40 -28 68t-68 28h-576q-40 0 -68 -28t-28 -68v-32h768v32zM464 608h-176q-7 0 -11.5 4.5t-4.5 11.5t4.5 11.5t11.5 4.5h176q7 0 11.5 -4.5t4.5 -11.5t-4.5 -11.5t-11.5 -4.5zM208 608q-7 0 -11.5 4.5t-4.5 11.5
t4.5 11.5t11.5 4.5t11.5 -4.5t4.5 -11.5t-4.5 -11.5t-11.5 -4.5zM404.5 459.5q11.5 11.5 22.5 -0.5l85 -85l85 85q4 5 11 5t11 -5q12 -11 0 -23l-68 -68h57q7 0 11.5 -4.5t4.5 -11.5t-4.5 -11.5t-11.5 -4.5h-80v-48h80q7 0 11.5 -4.5t4.5 -11.5t-4.5 -11.5t-11.5 -4.5h-80
v-64q0 -7 -4.5 -11.5t-11.5 -4.5t-11.5 4.5t-4.5 11.5v64h-80q-7 0 -11.5 4.5t-4.5 11.5t4.5 11.5t11.5 4.5h80v48h-80q-7 0 -11.5 4.5t-4.5 11.5t4.5 11.5t11.5 4.5h57l-69 69q-11 11 0.5 22.5z" />
    <glyph glyph-name="kuandai" unicode="&#xe669;" 
d="M875 -128h-726h-1q-61 0 -104.5 43.5t-43.5 104.5v1v726v1q0 61 43.5 104.5t104.5 43.5h1h726h1q61 0 104.5 -43.5t43.5 -104.5v-1v-726v-1q0 -61 -43.5 -104.5t-104.5 -43.5h-1zM149 853h-1q-43 0 -74 -31t-31 -74v-1v-726v-1q0 -43 31 -74t74 -31h1h726h1q43 0 74 31
t31 74v1v726v1q0 43 -31 74t-74 31h-1h-726zM734 126h-444v0q-30 0 -51 21t-21 51v0v216q0 30 21 51t51 21h41v84q0 30 21 51t51 21h214q30 0 51 -21t21 -51v-84h41q30 0 51 -21t21 -51v-216q3 -30 -17 -51t-51 -21zM290 444q-13 0 -21.5 -8.5t-8.5 -21.5v-216
q0 -12 8.5 -20.5t21.5 -8.5h442q13 0 21.5 8.5t8.5 20.5v216q0 13 -8.5 21.5t-21.5 8.5h-62q-10 0 -15.5 5.5t-5.5 15.5v105q0 12 -9 20.5t-21 8.5h-214q-12 0 -21 -8.5t-9 -20.5v-105q0 -10 -5.5 -15.5t-15.5 -5.5h-64v0z" />
    <glyph glyph-name="dingbu" unicode="&#xe682;" 
d="M512 831q-91 0 -174 -35t-143 -95t-95 -143t-35 -174t35 -174t95 -143t143 -95t174 -35t174 35t143 95t95 143t35 174t-35 174t-95 143t-143 95t-174 35zM392 63q0 -13 -14 -14q-10 0 -17 2t-7 10q3 8 10 8q11 -3 11 3v103h-13q-8 1 -8 10q1 7 8 8h39q4 0 5 -3q2 4 7 5
h88q8 -1 8 -9q-1 -9 -8 -9h-40l-2 -13h25q17 1 15 -13v-68q0 -7 -9 -8q-8 1 -9 8v61q0 2 -2 2h-47l-2 -2v-60q0 -8 -9 -8q-8 0 -9 8v67q0 13 12 13h16l3 13h-28q-4 0 -8 3q-2 -5 -7 -5h-8v-112zM507 50q-5 -8 -14 -2q-4 2 -15 8q-9 5 -15 7q-10 5 -8 11q-2 -3 -7 -7l-2 -2
q-15 -12 -35 -19q-9 -3 -13 4q-2 8 6 12q30 12 36 25q8 12 8 44q0 9 8 10q9 -1 9 -10q2 -34 -8 -51q7 8 17 0q8 -4 21 -11l9 -6q8 -4 3 -13zM589 52h-44q-13 1 -14 11v37q0 14 14 14h46q12 0 12 -14v-37q1 -11 -14 -11zM652 57q-11 0 -17 3t-4 11q3 7 11 5q18 -4 15 14
q0 13 -17 33q-6 6 -2 18q7 22 10 34h-18q-2 0 -3 -3v-118q0 -8 -8 -9q-9 1 -9 9v70q-2 -3 -6 -3h-74q-7 1 -8 9q1 9 8 9h16q-1 2 -9 16q-4 9 4 12h-8q-7 1 -7 9q0 9 7 9h24q-1 2 -1 4q-2 7 6 11q9 3 11 -4q2 -6 5 -11h22q7 0 8 -9q-1 -8 -8 -9h-51q5 -3 11 -18q2 -7 -1 -10
h14q1 2 2 6q4 9 6 15q2 7 11 6q8 -4 6 -11q-2 -3 -3 -8q-1 -4 -3 -8h12q4 0 5 -2v44q0 13 10 13h39q15 0 12 -17l-3 -11q-6 -16 -8 -24q-2 -6 -2 -9q1 -1 4 -5q14 -21 15 -40q1 -30 -24 -31zM686 433q-6 -6 -14 -6.5t-13 5.5l-2 2l-125 124v-299q0 -7 -6 -12.5t-14.5 -5.5
t-14.5 5.5t-6 12.5v2v297l-125 -124q0 -1 -2 -2q-5 -6 -13 -5.5t-14 6.5t-6.5 14t5.5 14l158 158q4 6 10 8q3 1 7 1v0h1v0h1q3 0 6 -1q6 -2 10 -8l158 -158q6 -6 5.5 -14t-6.5 -14zM675 677h-326q-7 0 -12.5 5t-5.5 12.5t5.5 13t12.5 5.5h326q8 0 13 -5.5t5 -13t-5 -12.5
t-13 -5zM582 95h-30q-2 0 -3 -2v-21q1 -2 3 -2h30q3 1 3 2v21q0 2 -3 2z" />
    <glyph glyph-name="shoujiyanzhengma" unicode="&#xe605;" 
d="M711 839q24 0 40.5 -16.5t16.5 -40.5v-796q0 -24 -16.5 -40.5t-40.5 -16.5h-398q-24 0 -40.5 16.5t-16.5 40.5v796q0 24 16.5 40.5t40.5 16.5h398zM711 896h-398q-47 0 -80.5 -33.5t-33.5 -80.5v-796q0 -47 33.5 -80.5t80.5 -33.5h398q47 0 80.5 33.5t33.5 80.5v796
q0 47 -33.5 80.5t-80.5 33.5zM569 71h-114q-11 0 -19.5 -8t-8.5 -20t8 -20.5t20 -8.5h114q11 0 19.5 8t8.5 21q0 12 -7.5 20t-20.5 8zM677 514.5q-9 8.5 -20 8.5t-20 -8l-168 -168l-82 83q-9 8 -20 8t-20 -8.5t-9 -20t9 -19.5l102 -103q9 -8 20.5 -8t19.5 8l188 188
q9 9 9 20t-9 19.5z" />
    <glyph glyph-name="search" unicode="&#xe6f3;" 
d="M397 166q-138 0 -235 97.5t-97 235t97 235t235 97.5t235.5 -97.5t97.5 -235t-97.5 -235t-235.5 -97.5zM397.5 794q-122.5 0 -209.5 -86.5t-87 -209t87 -209t209.5 -86.5t209 86.5t86.5 209t-86.5 209t-209 86.5zM637 258q-7 -7 -2.5 -21t17.5 -27l252 -252q13 -13 27 -17
t21 2.5t2.5 21t-17.5 27.5l-252 251q-13 13 -27 17.5t-21 -2.5z" />
    <glyph glyph-name="liren" unicode="&#xe67a;" horiz-adv-x="1032" 
d="M342 -123q-70 0 -103 17q-25 13 -29 32v7l58 484l-225 281q-5 6 -5 15q0 6 3 11q21 41 71 81q97 80 234 86h16q131 0 231 -86q22 -19 40.5 -41t25 -32t8.5 -14q8 -14 -2 -26l-218 -278l53 -482v-3q0 -11 -8 -18q-6 -5 -17 -11.5t-47.5 -14.5t-85.5 -8zM259 -62
q23 -13 83 -13q71 0 108 17l-52 476q-1 2 -1 3q0 8 6 15l213 272q-24 34 -56 62q-86 72 -198 72h-14q-121 -5 -206 -74q-29 -25 -50 -54l220 -275q5 -6 5 -15v-2zM378 406h-1l-44 1q-18 0 -23 18l-52 197q-2 9 3 18t14.5 11.5t18 -3t11.5 -14.5l47 -179h6l42 182
q2 10 10.5 15.5t18.5 3t15 -11t3 -18.5l-46 -201q-2 -8 -8.5 -13.5t-14.5 -5.5zM304 363h104v-48h-104v48zM970 -119h-289q-10 0 -17.5 7t-7.5 17v0l3 532q0 10 7.5 17t16.5 7h287q10 0 17 -7.5t7 -17.5v-531v0q0 -10 -7 -17t-17 -7v0zM705 -71h241v483h-239zM870 16
q-10 0 -17 7t-7 17v300q0 10 7 17t17 7t17 -7t7 -17v-300q0 -10 -7 -17t-17 -7zM915 416h-171v0q-10 0 -18 8q-6 7 -6 16v3l2 11v260q0 4 1 7q1 4 3 10t9.5 19.5t16.5 24.5t24 22t32 15q23 5 49 23.5t41 34.5q7 7 18 7q4 0 9 -2q15 -6 15 -22v0v-413q-1 -10 -8 -17t-17 -7z
M770 464h121v337q-40 -29 -72 -36q-18 -4 -30.5 -21t-18.5 -34v-246z" />
    <glyph glyph-name="buhangren" unicode="&#xe615;" 
d="M354 131q13 18 18 31l42 126q27 -56 80 -87l-24 -70q-3 -8 -13 -28.5t-15 -27.5l-95 -144q-10 -18 -32.5 -22.5t-40.5 8.5q-18 11 -23 33t5 37zM435 418l24 108l-42 -42l-3 -3l-67 -140q-8 -16 -24.5 -22.5t-34.5 1.5q-16 8 -22.5 24t1.5 32l66 140q6 12 14 21l112 108
q17 17 53 16q16 -1 31 -6q50 -15 77 -59.5t14 -93.5l-7 -28l-21 -88l-7 -35q4 -7 13 -21l81 -154q18 -35 24 -59l25 -171q2 -22 -10.5 -39.5t-35.5 -20.5q-21 -2 -39 10t-20 32q-20 148 -42 199l-38 74l-16.5 9.5t-38 26t-41.5 42.5t-28.5 60t2.5 79zM515 781
q0 -36 25.5 -61.5t62 -25.5t62 25.5t25.5 61.5t-25.5 62t-62 26t-62 -26t-25.5 -62zM714 330l-70 39l21 87l87 -45q16 -8 21 -26t-3 -34q-8 -18 -24 -24.5t-32 3.5z" />
    <glyph glyph-name="jianhao" unicode="&#xe619;" 
d="M512 784q80 0 151 -31q69 -29 123 -83q54 -53 83 -123q31 -73 31 -151q0 -80 -31 -151q-29 -69 -83 -124q-53 -53 -123 -83q-73 -30 -151 -30q-80 0 -151 30q-69 29 -123 83t-83 124q-31 73 -31 151q0 79 31 151q29 68 83 123q53 54 123 83q71 31 151 31zM512 844
q-91 0 -174 -35.5t-143 -95.5t-95.5 -143t-35.5 -174t35.5 -174t95.5 -143t143 -95.5t174 -35.5t174 35.5t143 95.5t95.5 143t35.5 174t-35.5 174t-95.5 143t-143 95.5t-174 35.5zM542 366h185q12 0 21 9t9 21.5t-8.5 21t-21.5 8.5h-185v-60zM559 426h-262q-12 0 -21 -9
t-9 -21.5t8.5 -21t21.5 -8.5h262v60z" />
    <glyph glyph-name="jiahao1" unicode="&#xe7cf;" 
d="M63 831q251 1 892 0v-893q-616 -1 -892 0q-1 17 -1 97.5v97.5v348.5t1 349.5zM107 786q-1 -29 0 -68q0 -85 -0.5 -367.5t0.5 -367.5q545 -1 801 1v801q-10 1 -79 1h-79h-321.5h-321.5zM494 666q10 7 22.5 2.5t14.5 -16.5q1 -31 0 -121.5t1 -121.5q39 1 112 1h111
q30 -1 37 -4q12 -8 10 -24t-15 -20h-128.5h-127.5v-122v-123q-3 -11 -14.5 -16t-21.5 2q-5 3 -7.5 8.5t-3 9t-1 12.5t-0.5 10v108.5t1 109.5q-70 2 -259 0q-1 2 -4.5 6t-4.5 5.5t-3.5 6.5t-1.5 7t1 7q2 6 6 10t11.5 5.5t10 1.5h12.5h231q1 95 0 221q0 1 0.5 9t1 11t3 8
t6.5 7z" />
    <glyph glyph-name="jianhao1" unicode="&#xe7d0;" 
d="M65 831h893v-449v-449h-405h-404q-9 0 -26 -0.5t-30.5 0t-25.5 2.5q-2 12 -2 25t0.5 30.5t-0.5 25.5v815zM109 783q-1 -140 -0.5 -378t-0.5 -379q0 -39 1 -49q536 -1 805 0q1 125 0 806q-6 1 -70 1h-664q-66 0 -71 -1zM216 393q2 4 5 6.5t7.5 3.5t7 1.5t9 1t7.5 0.5
q64 -1 478 -1q6 0 20.5 0.5t25 0t19.5 -2.5q15 -7 12 -25.5t-19 -20.5q-395 1 -552 0q-13 1 -19.5 13t-0.5 23z" />
    <glyph glyph-name="icon_wodezichan" unicode="&#xe610;" 
d="M512 -128q-139 0 -257 68.5t-186.5 186.5t-68.5 257t68.5 257t186.5 186.5t257 68.5t257 -68.5t186.5 -186.5t68.5 -257t-68.5 -257t-186.5 -186.5t-257 -68.5zM512 811q-116 0 -214 -57.5t-155.5 -155.5t-57.5 -214t57.5 -214t155.5 -155.5t214 -57.5t214 57.5
t155.5 155.5t57.5 214t-57.5 214t-155.5 155.5t-214 57.5zM640 299q18 0 30.5 -12.5t12.5 -30.5t-12.5 -30.5t-30.5 -12.5h-85v-85q0 -18 -12.5 -30.5t-30.5 -12.5t-30.5 12.5t-12.5 30.5v85h-85q-18 0 -30.5 12.5t-12.5 30.5t12.5 30.5t30.5 12.5h85v85h-85
q-18 0 -30.5 12.5t-12.5 30t12.5 30t30.5 12.5h75l-98 98q-12 13 -12 30.5t12.5 30t30 12.5t30.5 -13l75 -75q7 3 15 3q7 0 15 -3l75 75q13 13 30.5 13t30 -12.5t12.5 -30t-12 -30.5l-98 -98h75q18 0 30.5 -12.5t12.5 -30t-12.5 -30t-30.5 -12.5h-85v-85h85z" />
    <glyph glyph-name="zhaoxiangji" unicode="&#xe88e;" horiz-adv-x="1243" 
d="M987 665h-151l-65 81q-7 9 -18 9v0h-274v0q-11 0 -18 -9l-61 -81h-164q-31 0 -52.5 -21.5t-21.5 -51.5v-506q0 -30 21.5 -51.5t52.5 -21.5h751q31 0 52.5 21.5t21.5 51.5v506q0 30 -22 51.5t-52 21.5zM206 592q0 12 8.5 20.5t20.5 8.5h176q11 0 18 9l61 81h251l65 -82
q7 -8 18 -8v0h162q12 0 20.5 -8.5t8.5 -20.5v-507q-1 -11 -9 -19.5t-20 -8.5v0h-751q-12 0 -20.5 8.5t-8.5 20.5v506v0v0zM629.5 120q91.5 0 156.5 63.5t65 152.5t-65 152.5t-156.5 63.5t-156.5 -63.5t-65 -152.5t65 -152.5t156.5 -63.5zM629 507q73 0 124.5 -50t51.5 -121
t-51.5 -121.5t-124.5 -50.5t-124.5 50.5t-51.5 121.5t51.5 121t124.5 50zM928 498v0q13 0 22 9t10 22q-1 13 -10 22t-22 9v0v0q-13 0 -22 -9t-10 -22q0 -13 9.5 -22t22.5 -9z" />
  </font>
</defs>
</svg>
